abc.ufo
<glyph name="uni0023" format="1">
  <advance width="617"/>
  <unicode hex="0023"/>
  <outline>
    <contour>
      <point x="456" y="471" type="line"/>
      <point x="228" y="471" type="line"/>
      <point x="221" y="449"/>
      <point x="210" y="408"/>
      <point x="203" y="386" type="qcurve" smooth="yes"/>
      <point x="153" y="221" type="line"/>
      <point x="237" y="221" type="line" smooth="yes"/>
      <point x="275" y="221"/>
      <point x="348" y="220"/>
      <point x="386" y="220" type="qcurve"/>
      <point x="393" y="243"/>
      <point x="405" y="287"/>
      <point x="411" y="309" type="qcurve" smooth="yes"/>
    </contour>
    <contour>
      <point x="352" y="-10" type="qcurve" smooth="yes"/>
      <point x="321" y="-10" type="line"/>
      <point x="381" y="197" type="line"/>
      <point x="323" y="197"/>
      <point x="206" y="198"/>
      <point x="147" y="199" type="qcurve"/>
      <point x="95" y="0" type="line"/>
      <point x="89" y="1"/>
      <point x="67" y="1"/>
      <point x="63" y="1" type="qcurve"/>
      <point x="84" y="78" type="line" smooth="yes"/>
      <point x="92" y="109"/>
      <point x="110" y="169"/>
      <point x="118" y="200" type="qcurve"/>
      <point x="93" y="200"/>
      <point x="44" y="201"/>
      <point x="20" y="202" type="qcurve"/>
      <point x="26" y="223" type="line"/>
      <point x="123" y="221" type="line"/>
      <point x="197" y="469" type="line"/>
      <point x="93" y="471" type="line"/>
      <point x="100" y="494" type="line"/>
      <point x="202" y="492" type="line"/>
      <point x="267" y="717" type="line"/>
      <point x="297" y="717" type="line"/>
      <point x="297" y="717"/>
      <point x="258" y="578"/>
      <point x="232" y="492" type="qcurve"/>
      <point x="462" y="492" type="line"/>
      <point x="477" y="546"/>
      <point x="507" y="656"/>
      <point x="523" y="709" type="qcurve"/>
      <point x="553" y="709" type="line"/>
      <point x="553" y="709"/>
      <point x="517" y="576"/>
      <point x="492" y="494" type="qcurve"/>
      <point x="597" y="492" type="line"/>
      <point x="594" y="485"/>
      <point x="590" y="471" type="qcurve"/>
      <point x="486" y="471" type="line"/>
      <point x="435" y="287" type="line" smooth="yes"/>
      <point x="431" y="270"/>
      <point x="421" y="237"/>
      <point x="416" y="220" type="qcurve"/>
      <point x="518" y="218" type="line"/>
      <point x="513" y="195" type="line"/>
      <point x="472" y="195" type="line" smooth="yes"/>
      <point x="457" y="195"/>
      <point x="426" y="196"/>
      <point x="411" y="196" type="qcurve"/>
      <point x="387" y="118"/>
      <point x="353" y="-10"/>
    </contour>
  </outline>
</glyph>
<glyph name="uni0024" format="1">
  <advance width="576"/>
  <unicode hex="0024"/>
  <outline>
    <contour>
      <point x="307" y="-30" type="qcurve" smooth="yes"/>
      <point x="388" y="-30"/>
      <point x="476" y="42"/>
      <point x="510" y="132"/>
      <point x="510" y="160" type="qcurve" smooth="yes"/>
      <point x="510" y="227"/>
      <point x="445" y="293"/>
      <point x="342" y="323"/>
      <point x="227" y="343"/>
      <point x="124" y="379"/>
      <point x="59" y="460"/>
      <point x="59" y="536" type="qcurve" smooth="yes"/>
      <point x="59" y="609"/>
      <point x="128" y="693"/>
      <point x="233" y="729"/>
      <point x="287" y="729" type="qcurve"/>
      <point x="287" y="772" type="line" smooth="yes"/>
      <point x="287" y="792"/>
      <point x="288" y="836"/>
      <point x="288" y="856" type="qcurve"/>
      <point x="317" y="856" type="line"/>
      <point x="317" y="836"/>
      <point x="316" y="792"/>
      <point x="316" y="772" type="qcurve" smooth="yes"/>
      <point x="316" y="728" type="line"/>
      <point x="350" y="728"/>
      <point x="442" y="696"/>
      <point x="466" y="672" type="qcurve"/>
      <point x="466" y="501" type="line"/>
      <point x="444" y="501" type="line"/>
      <point x="444" y="541"/>
      <point x="441" y="622"/>
      <point x="441" y="660" type="qcurve"/>
      <point x="440" y="661"/>
      <point x="359" y="710"/>
      <point x="299" y="710" type="qcurve" smooth="yes"/>
      <point x="249" y="710"/>
      <point x="150" y="680"/>
      <point x="85" y="606"/>
      <point x="84" y="538" type="qcurve"/>
      <point x="85" y="469"/>
      <point x="151" y="397"/>
      <point x="252" y="364"/>
      <point x="366" y="343"/>
      <point x="468" y="308"/>
      <point x="534" y="233"/>
      <point x="535" y="160" type="qcurve"/>
      <point x="531" y="78"/>
      <point x="428" y="-47"/>
      <point x="318" y="-52" type="qcurve"/>
      <point x="317" y="-83"/>
      <point x="316" y="-146"/>
      <point x="316" y="-177" type="qcurve"/>
      <point x="287" y="-177" type="line"/>
      <point x="287" y="-127" type="line" smooth="yes"/>
      <point x="287" y="-108"/>
      <point x="288" y="-70"/>
      <point x="288" y="-52" type="qcurve"/>
      <point x="290" y="-52" type="line"/>
      <point x="217" y="-47"/>
      <point x="117" y="6"/>
      <point x="65" y="56"/>
      <point x="63" y="56" type="qcurve"/>
      <point x="63" y="96"/>
      <point x="64" y="185"/>
      <point x="64" y="226" type="qcurve"/>
      <point x="93" y="226" type="line"/>
      <point x="93" y="208"/>
      <point x="92" y="172"/>
      <point x="92" y="154" type="qcurve" smooth="yes"/>
      <point x="92" y="132"/>
      <point x="94" y="86"/>
      <point x="94" y="63" type="qcurve" smooth="yes"/>
      <point x="94" y="62"/>
      <point x="147" y="15"/>
      <point x="243" y="-30"/>
    </contour>
  </outline>
</glyph>
<glyph name="uni0025" format="1">
  <advance width="750"/>
  <unicode hex="0025"/>
  <outline>
    <contour>
      <point x="180" y="710" type="qcurve" smooth="yes"/>
      <point x="253" y="710"/>
      <point x="331" y="606"/>
      <point x="331" y="529" type="qcurve" smooth="yes"/>
      <point x="331" y="456"/>
      <point x="264" y="346"/>
      <point x="184" y="346" type="qcurve" smooth="yes"/>
      <point x="113" y="346"/>
      <point x="30" y="442"/>
      <point x="30" y="527" type="qcurve" smooth="yes"/>
      <point x="30" y="608"/>
      <point x="104" y="710"/>
    </contour>
    <contour>
      <point x="161" y="0" type="line"/>
      <point x="442" y="485" type="line"/>
      <point x="568" y="700" type="line"/>
      <point x="601" y="700" type="line"/>
      <point x="187" y="0" type="line"/>
    </contour>
    <contour>
      <point x="58" y="539" type="qcurve" smooth="yes"/>
      <point x="58" y="515"/>
      <point x="72" y="436"/>
      <point x="126" y="372"/>
      <point x="185" y="370" type="qcurve" smooth="yes"/>
      <point x="247" y="370"/>
      <point x="305" y="463"/>
      <point x="305" y="529" type="qcurve" smooth="yes"/>
      <point x="305" y="615"/>
      <point x="223" y="689"/>
      <point x="180" y="689" type="qcurve" smooth="yes"/>
      <point x="112" y="689"/>
      <point x="58" y="594"/>
    </contour>
    <contour>
      <point x="569" y="347" type="qcurve" smooth="yes"/>
      <point x="643" y="347"/>
      <point x="720" y="242"/>
      <point x="720" y="165" type="qcurve" smooth="yes"/>
      <point x="720" y="92"/>
      <point x="650" y="-15"/>
      <point x="573" y="-15" type="qcurve" smooth="yes"/>
      <point x="503" y="-15"/>
      <point x="416" y="79"/>
      <point x="416" y="165" type="qcurve" smooth="yes"/>
      <point x="416" y="245"/>
      <point x="490" y="347"/>
    </contour>
    <contour>
      <point x="446" y="174" type="qcurve" smooth="yes"/>
      <point x="446" y="149"/>
      <point x="460" y="70"/>
      <point x="513" y="8"/>
      <point x="572" y="6" type="qcurve" smooth="yes"/>
      <point x="634" y="6"/>
      <point x="691" y="99"/>
      <point x="691" y="165" type="qcurve" smooth="yes"/>
      <point x="691" y="251"/>
      <point x="611" y="328"/>
      <point x="569" y="328" type="qcurve" smooth="yes"/>
      <point x="499" y="328"/>
      <point x="446" y="229"/>
    </contour>
  </outline>
</glyph>
<glyph name="uni0026" format="1">
  <advance width="620"/>
  <unicode hex="0026"/>
  <outline>
    <contour>
      <point x="130" y="555" type="qcurve" smooth="yes"/>
      <point x="130" y="502"/>
      <point x="172" y="415"/>
      <point x="220" y="359"/>
      <point x="229" y="350" type="qcurve"/>
      <point x="241" y="357"/>
      <point x="314" y="399"/>
      <point x="396" y="461"/>
      <point x="456" y="535"/>
      <point x="455" y="573" type="qcurve"/>
      <point x="457" y="617"/>
      <point x="400" y="703"/>
      <point x="311" y="704" type="qcurve" smooth="yes"/>
      <point x="241" y="705"/>
      <point x="162" y="651"/>
      <point x="130" y="580"/>
    </contour>
    <contour>
      <point x="444" y="59" type="line"/>
      <point x="221" y="317" type="line"/>
      <point x="202" y="308"/>
      <point x="117" y="255"/>
      <point x="46" y="175"/>
      <point x="48" y="122" type="qcurve" smooth="yes"/>
      <point x="51" y="58"/>
      <point x="130" y="-34"/>
      <point x="239" y="-33" type="qcurve" smooth="yes"/>
      <point x="308" y="-32"/>
      <point x="425" y="42"/>
      <point x="443" y="58" type="qcurve"/>
    </contour>
    <contour>
      <point x="246" y="328" type="qcurve"/>
      <point x="466" y="76" type="line"/>
      <point x="481" y="92"/>
      <point x="503" y="119"/>
      <point x="513" y="133" type="qcurve"/>
      <point x="516" y="138"/>
      <point x="519" y="154"/>
      <point x="507" y="154" type="qcurve" smooth="yes"/>
      <point x="460" y="155" type="line"/>
      <point x="460" y="178" type="line"/>
      <point x="620" y="182" type="line"/>
      <point x="619" y="161" type="line"/>
      <point x="565" y="160" type="line" smooth="yes"/>
      <point x="555" y="160"/>
      <point x="549" y="148" type="qcurve"/>
      <point x="549" y="148"/>
      <point x="505" y="83"/>
      <point x="479" y="61" type="qcurve"/>
      <point x="512" y="20" type="line" smooth="yes"/>
      <point x="528" y="0"/>
      <point x="553" y="0" type="qcurve" smooth="yes"/>
      <point x="611" y="1" type="line"/>
      <point x="609" y="-26" type="line"/>
      <point x="514" y="-25" type="line"/>
      <point x="459" y="42" type="line"/>
      <point x="448" y="32"/>
      <point x="385" y="-17"/>
      <point x="294" y="-59"/>
      <point x="240" y="-59" type="qcurve" smooth="yes"/>
      <point x="119" y="-59"/>
      <point x="22" y="48"/>
      <point x="21" y="121" type="qcurve" smooth="yes"/>
      <point x="20" y="174"/>
      <point x="77" y="253"/>
      <point x="153" y="308"/>
      <point x="211" y="335"/>
      <point x="211" y="335" type="qcurve"/>
      <point x="211" y="335"/>
      <point x="154" y="401"/>
      <point x="100" y="503"/>
      <point x="104" y="555" type="qcurve" smooth="yes"/>
      <point x="111" y="633"/>
      <point x="224" y="731"/>
      <point x="310" y="730" type="qcurve" smooth="yes"/>
      <point x="482" y="728"/>
      <point x="482" y="573" type="qcurve" smooth="yes"/>
      <point x="482" y="529"/>
      <point x="420" y="447"/>
      <point x="334" y="379"/>
      <point x="259" y="335"/>
    </contour>
  </outline>
</glyph>
<glyph name="uni0027" format="1">
  <advance width="169"/>
  <unicode hex="0027"/>
  <outline>
    <contour>
      <point x="71" y="695" type="qcurve" smooth="yes"/>
      <point x="71" y="697"/>
      <point x="74" y="710"/>
      <point x="85" y="710" type="qcurve" smooth="yes"/>
      <point x="94" y="710"/>
      <point x="99" y="698"/>
      <point x="99" y="696" type="qcurve" smooth="yes"/>
      <point x="99" y="632" type="line" smooth="yes"/>
      <point x="99" y="597"/>
      <point x="96" y="526"/>
      <point x="97" y="491" type="qcurve"/>
      <point x="77" y="491" type="line"/>
      <point x="77" y="496" type="line" smooth="yes"/>
      <point x="77" y="509"/>
      <point x="75" y="578"/>
      <point x="73" y="653"/>
      <point x="72" y="673" type="qcurve" smooth="yes"/>
      <point x="72" y="682"/>
      <point x="71" y="694"/>
    </contour>
  </outline>
</glyph>
<glyph name="uni0029" format="1">
  <advance width="297"/>
  <unicode hex="0029"/>
  <outline>
    <contour>
      <point x="246" y="300" type="qcurve" smooth="yes"/>
      <point x="246" y="201"/>
      <point x="188" y="39"/>
      <point x="112" y="-77"/>
      <point x="53" y="-139"/>
      <point x="53" y="-139" type="qcurve"/>
      <point x="28" y="-136" type="line"/>
      <point x="28" y="-136"/>
      <point x="83" y="-78"/>
      <point x="157" y="35"/>
      <point x="214" y="197"/>
      <point x="217" y="301" type="qcurve"/>
      <point x="214" y="403"/>
      <point x="153" y="566"/>
      <point x="77" y="680"/>
      <point x="20" y="740"/>
      <point x="20" y="740" type="qcurve"/>
      <point x="52" y="740" type="line"/>
      <point x="52" y="740"/>
      <point x="111" y="677"/>
      <point x="188" y="561"/>
      <point x="246" y="399"/>
    </contour>
  </outline>
</glyph>
<glyph name="uni002A" format="1">
  <advance width="338"/>
  <unicode hex="002A"/>
  <outline>
    <contour>
      <point x="47" y="616" type="qcurve" smooth="yes"/>
      <point x="50" y="616"/>
      <point x="129" y="590"/>
      <point x="158" y="580" type="qcurve"/>
      <point x="156" y="667" type="line" smooth="yes"/>
      <point x="156" y="676"/>
      <point x="155" y="690"/>
      <point x="155" y="691" type="qcurve"/>
      <point x="156" y="693"/>
      <point x="159" y="705"/>
      <point x="167" y="705" type="qcurve" smooth="yes"/>
      <point x="177" y="705"/>
      <point x="181" y="693"/>
      <point x="181" y="689" type="qcurve" smooth="yes"/>
      <point x="181" y="659"/>
      <point x="180" y="608"/>
      <point x="179" y="581" type="qcurve"/>
      <point x="205" y="589"/>
      <point x="291" y="616"/>
      <point x="292" y="616" type="qcurve" smooth="yes"/>
      <point x="293" y="616"/>
      <point x="306" y="614"/>
      <point x="308" y="605" type="qcurve"/>
      <point x="308" y="590"/>
      <point x="226" y="571"/>
      <point x="200" y="564" type="qcurve"/>
      <point x="188" y="562"/>
      <point x="185" y="560" type="qcurve"/>
      <point x="202" y="540"/>
      <point x="238" y="495"/>
      <point x="252" y="474" type="qcurve"/>
      <point x="255" y="470" type="line"/>
      <point x="258" y="461" type="line"/>
      <point x="258" y="459" type="line" smooth="yes"/>
      <point x="258" y="446"/>
      <point x="243" y="446" type="qcurve" smooth="yes"/>
      <point x="237" y="446"/>
      <point x="219" y="476" type="qcurve"/>
      <point x="206" y="493" type="line" smooth="yes"/>
      <point x="195" y="507"/>
      <point x="176" y="537"/>
      <point x="168" y="547" type="qcurve"/>
      <point x="101" y="454" type="line" smooth="yes"/>
      <point x="95" y="445"/>
      <point x="90" y="445" type="qcurve" smooth="yes"/>
      <point x="76" y="445"/>
      <point x="76" y="457" type="qcurve" smooth="yes"/>
      <point x="76" y="461"/>
      <point x="78" y="466"/>
      <point x="78" y="467" type="qcurve"/>
      <point x="127" y="530" type="line"/>
      <point x="134" y="538"/>
      <point x="143" y="552"/>
      <point x="150" y="560" type="qcurve"/>
      <point x="134" y="565"/>
      <point x="76" y="577"/>
      <point x="30" y="593"/>
      <point x="30" y="602" type="qcurve" smooth="yes"/>
      <point x="30" y="613"/>
      <point x="45" y="616"/>
    </contour>
  </outline>
</glyph>
<glyph name="uni002B" format="1">
  <advance width="415"/>
  <unicode hex="002B"/>
  <outline>
    <contour>
      <point x="196" y="110" type="line"/>
      <point x="194" y="278" type="line"/>
      <point x="30" y="278" type="line"/>
      <point x="30" y="304" type="line"/>
      <point x="194" y="302" type="line"/>
      <point x="194" y="324"/>
      <point x="193" y="367"/>
      <point x="193" y="389" type="qcurve" smooth="yes"/>
      <point x="193" y="482" type="line"/>
      <point x="219" y="482" type="line"/>
      <point x="219" y="303" type="line"/>
      <point x="239" y="303"/>
      <point x="280" y="302"/>
      <point x="299" y="302" type="qcurve" smooth="yes"/>
      <point x="385" y="302" type="line"/>
      <point x="385" y="278" type="line"/>
      <point x="219" y="278" type="line"/>
      <point x="219" y="110" type="line"/>
    </contour>
  </outline>
</glyph>
<glyph name="uni002C" format="1">
  <advance width="156"/>
  <unicode hex="002C"/>
  <outline>
    <contour>
      <point x="85" y="39" type="qcurve" smooth="yes"/>
      <point x="97" y="39"/>
      <point x="106" y="22"/>
      <point x="106" y="14" type="qcurve"/>
      <point x="105" y="-39"/>
      <point x="62" y="-130"/>
      <point x="62" y="-130" type="qcurve"/>
      <point x="50" y="-130" type="line"/>
      <point x="50" y="-130"/>
      <point x="76" y="-62"/>
      <point x="80" y="-6" type="qcurve"/>
      <point x="63" y="-6"/>
      <point x="61" y="10" type="qcurve"/>
      <point x="59" y="20"/>
      <point x="69" y="39"/>
    </contour>
  </outline>
</glyph>
<glyph name="uni002E" format="1">
  <advance width="145"/>
  <unicode hex="002E"/>
  <outline>
    <contour>
      <point x="74" y="39" type="qcurve" smooth="yes"/>
      <point x="95" y="39"/>
      <point x="95" y="17" type="qcurve" smooth="yes"/>
      <point x="95" y="-3"/>
      <point x="75" y="-5" type="qcurve"/>
      <point x="67" y="-5"/>
      <point x="50" y="3"/>
      <point x="50" y="15" type="qcurve" smooth="yes"/>
      <point x="50" y="39"/>
    </contour>
  </outline>
</glyph>
<glyph name="uni002F" format="1">
  <advance width="477"/>
  <unicode hex="002F"/>
  <outline>
    <contour>
      <point x="47" y="-60" type="line"/>
      <point x="20" y="-59" type="line"/>
      <point x="134" y="169" type="line" smooth="yes"/>
      <point x="208" y="316"/>
      <point x="355" y="613"/>
      <point x="429" y="760" type="qcurve"/>
      <point x="457" y="760" type="line"/>
    </contour>
  </outline>
</glyph>
<glyph name="uni0030" format="1">
  <advance width="506"/>
  <unicode hex="0030"/>
  <outline>
    <contour>
      <point x="251" y="510" type="qcurve" smooth="yes"/>
      <point x="349" y="512"/>
      <point x="475" y="363"/>
      <point x="474" y="241" type="qcurve" smooth="yes"/>
      <point x="473" y="115"/>
      <point x="349" y="-34"/>
      <point x="248" y="-32" type="qcurve" smooth="yes"/>
      <point x="133" y="-31"/>
      <point x="31" y="133"/>
      <point x="30" y="233" type="qcurve" smooth="yes"/>
      <point x="29" y="357"/>
      <point x="152" y="508"/>
    </contour>
    <contour>
      <point x="59" y="237" type="qcurve" smooth="yes"/>
      <point x="60" y="191"/>
      <point x="90" y="75"/>
      <point x="173" y="-11"/>
      <point x="250" y="-11" type="qcurve" smooth="yes"/>
      <point x="348" y="-13"/>
      <point x="447" y="139"/>
      <point x="446" y="238" type="qcurve" smooth="yes"/>
      <point x="446" y="357"/>
      <point x="338" y="488"/>
      <point x="254" y="488" type="qcurve" smooth="yes"/>
      <point x="171" y="488"/>
      <point x="87" y="394"/>
      <point x="59" y="275"/>
    </contour>
  </outline>
</glyph>
<glyph name="uni0033" format="1">
  <advance width="481"/>
  <unicode hex="0033"/>
  <outline>
    <contour>
      <point x="32" y="434" type="qcurve"/>
      <point x="32" y="434" type="line"/>
      <point x="32" y="433"/>
    </contour>
    <contour>
      <point x="215" y="-260" type="qcurve" smooth="yes"/>
      <point x="163" y="-260"/>
      <point x="58" y="-223"/>
      <point x="26" y="-178" type="qcurve" smooth="yes"/>
      <point x="20" y="-169"/>
      <point x="20" y="-158" type="qcurve" smooth="yes"/>
      <point x="20" y="-140"/>
      <point x="37" y="-140" type="qcurve" smooth="yes"/>
      <point x="59" y="-140"/>
      <point x="59" y="-159" type="qcurve" smooth="yes"/>
      <point x="59" y="-168"/>
      <point x="53" y="-174" type="qcurve" smooth="yes"/>
      <point x="44" y="-183"/>
      <point x="138" y="-244"/>
      <point x="211" y="-240" type="qcurve" smooth="yes"/>
      <point x="322" y="-234"/>
      <point x="422" y="-116"/>
      <point x="422" y="-16" type="qcurve" smooth="yes"/>
      <point x="422" y="85"/>
      <point x="301" y="179"/>
      <point x="224" y="179" type="qcurve" smooth="yes"/>
      <point x="175" y="179"/>
      <point x="120" y="160" type="qcurve"/>
      <point x="117" y="175"/>
      <point x="117" y="184" type="qcurve"/>
      <point x="194" y="201"/>
      <point x="337" y="292"/>
      <point x="342" y="384" type="qcurve"/>
      <point x="342" y="433"/>
      <point x="283" y="529"/>
      <point x="206" y="529" type="qcurve" smooth="yes"/>
      <point x="150" y="529"/>
      <point x="79" y="476"/>
      <point x="46" y="422"/>
      <point x="46" y="422" type="qcurve"/>
      <point x="32" y="434" type="line"/>
      <point x="34" y="436"/>
      <point x="66" y="495"/>
      <point x="138" y="553"/>
      <point x="200" y="553" type="qcurve" smooth="yes"/>
      <point x="289" y="553"/>
      <point x="370" y="450"/>
      <point x="370" y="392" type="qcurve" smooth="yes"/>
      <point x="370" y="337"/>
      <point x="318" y="260"/>
      <point x="248" y="213"/>
      <point x="192" y="190"/>
      <point x="188" y="188" type="qcurve"/>
      <point x="223" y="194"/>
      <point x="251" y="194" type="qcurve" smooth="yes"/>
      <point x="331" y="194"/>
      <point x="418" y="120"/>
      <point x="451" y="26"/>
      <point x="451" y="-3" type="qcurve" smooth="yes"/>
      <point x="451" y="-23" type="line" smooth="yes"/>
      <point x="451" y="-134"/>
      <point x="322" y="-260"/>
    </contour>
  </outline>
</glyph>
<glyph name="uni0034" format="1">
  <advance width="469"/>
  <unicode hex="0034"/>
  <outline>
    <contour>
      <point x="439" y="17" type="line"/>
      <point x="353" y="17" type="line"/>
      <point x="352" y="-58"/>
      <point x="353" y="-208"/>
      <point x="352" y="-282" type="qcurve"/>
      <point x="345" y="-282"/>
      <point x="330" y="-283"/>
      <point x="322" y="-283" type="qcurve"/>
      <point x="322" y="-283"/>
      <point x="323" y="-101"/>
      <point x="324" y="16" type="qcurve"/>
      <point x="214" y="17"/>
      <point x="52" y="19"/>
      <point x="35" y="20" type="qcurve"/>
      <point x="30" y="36" type="line"/>
      <point x="78" y="111"/>
      <point x="174" y="264"/>
      <point x="222" y="339" type="qcurve" smooth="yes"/>
      <point x="333" y="513" type="line"/>
      <point x="333" y="513"/>
      <point x="348" y="514"/>
      <point x="352" y="514" type="qcurve" smooth="yes"/>
      <point x="363" y="514" type="line"/>
      <point x="353" y="36" type="line"/>
      <point x="439" y="36" type="line"/>
    </contour>
    <contour>
      <point x="324" y="36" type="qcurve"/>
      <point x="335" y="474" type="line"/>
      <point x="57" y="37" type="line"/>
      <point x="153" y="37" type="line" smooth="yes"/>
      <point x="196" y="37"/>
      <point x="281" y="36"/>
    </contour>
  </outline>
</glyph>
<glyph name="uni0035" format="1">
  <advance width="454"/>
  <unicode hex="0035"/>
  <outline>
    <contour>
      <point x="400" y="486" type="qcurve"/>
      <point x="197" y="480" type="line"/>
      <point x="126" y="238" type="line"/>
      <point x="287" y="235"/>
      <point x="409" y="83"/>
      <point x="409" y="-16" type="qcurve" smooth="yes"/>
      <point x="409" y="-123"/>
      <point x="269" y="-282"/>
      <point x="147" y="-282" type="qcurve" smooth="yes"/>
      <point x="117" y="-282"/>
      <point x="55" y="-273"/>
      <point x="20" y="-262" type="qcurve"/>
      <point x="20" y="-239" type="line"/>
      <point x="71" y="-261"/>
      <point x="134" y="-261" type="qcurve" smooth="yes"/>
      <point x="191" y="-261"/>
      <point x="306" y="-215"/>
      <point x="383" y="-109"/>
      <point x="383" y="-18" type="qcurve" smooth="yes"/>
      <point x="383" y="81"/>
      <point x="260" y="216"/>
      <point x="119" y="216" type="qcurve" smooth="yes"/>
      <point x="98" y="216" type="line"/>
      <point x="177" y="503" type="line"/>
      <point x="346" y="510" type="line" smooth="yes"/>
      <point x="363" y="510"/>
      <point x="375" y="520"/>
      <point x="381" y="536" type="qcurve" smooth="yes"/>
      <point x="386" y="549"/>
      <point x="397" y="595"/>
      <point x="398" y="606" type="qcurve"/>
      <point x="414" y="607" type="line"/>
      <point x="411" y="576"/>
      <point x="404" y="516"/>
    </contour>
  </outline>
</glyph>
<glyph name="uni0036" format="1">
  <advance width="499"/>
  <unicode hex="0036"/>
  <outline>
    <contour>
      <point x="256" y="-20" type="qcurve" smooth="yes"/>
      <point x="179" y="-20"/>
      <point x="89" y="58"/>
      <point x="50" y="182"/>
      <point x="50" y="250" type="qcurve" smooth="yes"/>
      <point x="50" y="446"/>
      <point x="212" y="700"/>
      <point x="324" y="760" type="qcurve"/>
      <point x="326" y="756"/>
      <point x="336" y="740"/>
      <point x="336" y="740" type="qcurve"/>
      <point x="239" y="691"/>
      <point x="137" y="541"/>
      <point x="94" y="403"/>
      <point x="87" y="369" type="qcurve"/>
      <point x="91" y="374"/>
      <point x="127" y="445"/>
      <point x="209" y="512"/>
      <point x="279" y="512" type="qcurve" smooth="yes"/>
      <point x="376" y="511"/>
      <point x="469" y="372"/>
      <point x="469" y="269" type="qcurve" smooth="yes"/>
      <point x="469" y="239" type="line" smooth="yes"/>
      <point x="469" y="133"/>
      <point x="357" y="-20"/>
    </contour>
    <contour>
      <point x="278" y="492" type="qcurve" smooth="yes"/>
      <point x="214" y="492"/>
      <point x="135" y="431"/>
      <point x="93" y="346"/>
      <point x="77" y="268"/>
      <point x="77" y="251" type="qcurve" smooth="yes"/>
      <point x="77" y="150"/>
      <point x="161" y="0"/>
      <point x="254" y="0" type="qcurve" smooth="yes"/>
      <point x="320" y="0"/>
      <point x="404" y="76"/>
      <point x="443" y="188"/>
      <point x="443" y="240" type="qcurve" smooth="yes"/>
      <point x="443" y="361"/>
      <point x="355" y="491"/>
    </contour>
  </outline>
</glyph>
<glyph name="uni0038" format="1">
  <advance width="495"/>
  <unicode hex="0038"/>
  <outline>
    <contour>
      <point x="68" y="568" type="qcurve" smooth="yes"/>
      <point x="68" y="639"/>
      <point x="158" y="749"/>
      <point x="240" y="747" type="qcurve" smooth="yes"/>
      <point x="335" y="746"/>
      <point x="425" y="634"/>
      <point x="421" y="559" type="qcurve" smooth="yes"/>
      <point x="419" y="509"/>
      <point x="362" y="432"/>
      <point x="295" y="382"/>
      <point x="275" y="374" type="qcurve"/>
      <point x="297" y="364"/>
      <point x="383" y="310"/>
      <point x="455" y="227"/>
      <point x="455" y="171" type="qcurve" smooth="yes"/>
      <point x="455" y="70"/>
      <point x="329" y="-29"/>
      <point x="252" y="-29" type="qcurve" smooth="yes"/>
      <point x="161" y="-29"/>
      <point x="40" y="66"/>
      <point x="40" y="161" type="qcurve" smooth="yes"/>
      <point x="40" y="206"/>
      <point x="91" y="282"/>
      <point x="160" y="337"/>
      <point x="214" y="369"/>
      <point x="217" y="371" type="qcurve"/>
      <point x="196" y="380"/>
      <point x="125" y="427"/>
      <point x="68" y="508"/>
    </contour>
    <contour>
      <point x="394" y="559" type="qcurve" smooth="yes"/>
      <point x="399" y="639"/>
      <point x="317" y="724"/>
      <point x="243" y="725" type="qcurve" smooth="yes"/>
      <point x="176" y="726"/>
      <point x="93" y="627"/>
      <point x="94" y="569" type="qcurve" smooth="yes"/>
      <point x="96" y="500"/>
      <point x="171" y="420"/>
      <point x="246" y="387"/>
      <point x="246" y="387" type="qcurve"/>
      <point x="253" y="390"/>
      <point x="322" y="427"/>
      <point x="390" y="501"/>
    </contour>
    <contour>
      <point x="68" y="161" type="qcurve" smooth="yes"/>
      <point x="68" y="77"/>
      <point x="182" y="-2"/>
      <point x="252" y="-2" type="qcurve" smooth="yes"/>
      <point x="311" y="-2"/>
      <point x="425" y="79"/>
      <point x="426" y="170" type="qcurve" smooth="yes"/>
      <point x="426" y="212"/>
      <point x="373" y="280"/>
      <point x="303" y="329"/>
      <point x="247" y="356"/>
      <point x="244" y="356" type="qcurve"/>
      <point x="244" y="356"/>
      <point x="191" y="330"/>
      <point x="121" y="280"/>
      <point x="68" y="208"/>
    </contour>
  </outline>
</glyph>
<glyph name="uni003A" format="1">
  <advance width="145"/>
  <unicode hex="003A"/>
  <outline>
    <contour>
      <point x="74" y="477" type="qcurve" smooth="yes"/>
      <point x="95" y="477"/>
      <point x="95" y="456" type="qcurve" smooth="yes"/>
      <point x="95" y="433"/>
      <point x="72" y="433" type="qcurve" smooth="yes"/>
      <point x="50" y="433"/>
      <point x="50" y="454" type="qcurve" smooth="yes"/>
      <point x="50" y="477"/>
    </contour>
    <contour>
      <point x="74" y="39" type="qcurve" smooth="yes"/>
      <point x="95" y="39"/>
      <point x="95" y="17" type="qcurve" smooth="yes"/>
      <point x="95" y="-3"/>
      <point x="75" y="-5" type="qcurve"/>
      <point x="56" y="-5"/>
      <point x="52" y="5" type="qcurve"/>
      <point x="52" y="4" type="line"/>
      <point x="50" y="7"/>
      <point x="50" y="15" type="qcurve" smooth="yes"/>
      <point x="50" y="39"/>
    </contour>
  </outline>
</glyph>
<glyph name="uni003C" format="1">
  <advance width="438"/>
  <unicode hex="003C"/>
  <outline>
    <contour>
      <point x="388" y="-9" type="qcurve"/>
      <point x="336" y="26"/>
      <point x="227" y="98"/>
      <point x="174" y="134" type="qcurve" smooth="yes"/>
      <point x="42" y="224" type="line"/>
      <point x="40" y="246" type="line"/>
      <point x="245" y="382" type="line" smooth="yes"/>
      <point x="282" y="407"/>
      <point x="361" y="457"/>
      <point x="398" y="482" type="qcurve"/>
      <point x="398" y="453" type="line"/>
      <point x="317" y="400"/>
      <point x="155" y="291"/>
      <point x="74" y="238" type="qcurve"/>
      <point x="389" y="21" type="line"/>
      <point x="388" y="10"/>
    </contour>
  </outline>
</glyph>
<glyph name="uni003D" format="1">
  <advance width="435"/>
  <unicode hex="003D"/>
  <outline>
    <contour>
      <point x="395" y="363" type="line"/>
      <point x="40" y="363" type="line"/>
      <point x="40" y="389" type="line"/>
      <point x="395" y="386" type="line"/>
    </contour>
    <contour>
      <point x="395" y="182" type="line"/>
      <point x="40" y="182" type="line"/>
      <point x="40" y="208" type="line"/>
      <point x="395" y="206" type="line"/>
    </contour>
  </outline>
</glyph>
<glyph name="uni003E" format="1">
  <advance width="438"/>
  <unicode hex="003E"/>
  <outline>
    <contour>
      <point x="396" y="224" type="line"/>
      <point x="264" y="134" type="line"/>
      <point x="49" y="-11" type="line"/>
      <point x="49" y="21" type="line"/>
      <point x="208" y="130" type="line" smooth="yes"/>
      <point x="249" y="158"/>
      <point x="326" y="211"/>
      <point x="364" y="238" type="qcurve"/>
      <point x="283" y="291"/>
      <point x="120" y="400"/>
      <point x="40" y="453" type="qcurve"/>
      <point x="40" y="482" type="line"/>
      <point x="130" y="421"/>
      <point x="310" y="304"/>
      <point x="398" y="246" type="qcurve"/>
    </contour>
  </outline>
</glyph>
<glyph name="uni0040" format="1">
  <advance width="948"/>
  <unicode hex="0040"/>
  <outline>
    <contour>
      <point x="593" y="417" type="qcurve"/>
      <point x="594" y="436"/>
      <point x="593" y="473"/>
      <point x="594" y="492" type="qcurve"/>
      <point x="643" y="492" type="line" smooth="yes"/>
      <point x="655" y="492"/>
      <point x="682" y="493"/>
      <point x="693" y="493" type="qcurve"/>
      <point x="693" y="472" type="line"/>
      <point x="659" y="472" type="line" smooth="yes"/>
      <point x="649" y="472"/>
      <point x="629" y="471"/>
      <point x="619" y="471" type="qcurve"/>
      <point x="619" y="428"/>
      <point x="620" y="341"/>
      <point x="620" y="297" type="qcurve" smooth="yes"/>
      <point x="620" y="207" type="line"/>
      <point x="620" y="207"/>
      <point x="635" y="151"/>
      <point x="687" y="94"/>
      <point x="743" y="94" type="qcurve" smooth="yes"/>
      <point x="808" y="94"/>
      <point x="876" y="202"/>
      <point x="876" y="342" type="qcurve" smooth="yes"/>
      <point x="876" y="504"/>
      <point x="693" y="710"/>
      <point x="497" y="710" type="qcurve" smooth="yes"/>
      <point x="375" y="710"/>
      <point x="185" y="600"/>
      <point x="77" y="405"/>
      <point x="77" y="275" type="qcurve" smooth="yes"/>
      <point x="77" y="172"/>
      <point x="153" y="-11"/>
      <point x="316" y="-126"/>
      <point x="447" y="-126" type="qcurve" smooth="yes"/>
      <point x="544" y="-126"/>
      <point x="661" y="-77"/>
      <point x="715" y="-29"/>
      <point x="715" y="-29" type="qcurve"/>
      <point x="714" y="-62" type="line"/>
      <point x="714" y="-62"/>
      <point x="664" y="-105"/>
      <point x="547" y="-148"/>
      <point x="447" y="-148" type="qcurve" smooth="yes"/>
      <point x="276" y="-148"/>
      <point x="50" y="67"/>
      <point x="50" y="269" type="qcurve" smooth="yes"/>
      <point x="50" y="472"/>
      <point x="291" y="730"/>
      <point x="495" y="730" type="qcurve" smooth="yes"/>
      <point x="683" y="730"/>
      <point x="898" y="536"/>
      <point x="898" y="360" type="qcurve" smooth="yes"/>
      <point x="898" y="234"/>
      <point x="854" y="112"/>
      <point x="784" y="74"/>
      <point x="743" y="74" type="qcurve" smooth="yes"/>
      <point x="683" y="74"/>
      <point x="623" y="125"/>
      <point x="603" y="176"/>
      <point x="603" y="177" type="qcurve" smooth="yes"/>
      <point x="603" y="178"/>
      <point x="581" y="134"/>
      <point x="523" y="91"/>
      <point x="469" y="91" type="qcurve" smooth="yes"/>
      <point x="366" y="91"/>
      <point x="284" y="219"/>
      <point x="284" y="299" type="qcurve" smooth="yes"/>
      <point x="284" y="391"/>
      <point x="382" y="502"/>
      <point x="457" y="502" type="qcurve" smooth="yes"/>
      <point x="507" y="502"/>
      <point x="567" y="460"/>
      <point x="593" y="417"/>
    </contour>
    <contour>
      <point x="593" y="206" type="qcurve"/>
      <point x="590" y="378" type="line" smooth="yes"/>
      <point x="590" y="380"/>
      <point x="564" y="431"/>
      <point x="506" y="481"/>
      <point x="458" y="481" type="qcurve" smooth="yes"/>
      <point x="394" y="481"/>
      <point x="314" y="378"/>
      <point x="312" y="298" type="qcurve"/>
      <point x="312" y="221"/>
      <point x="383" y="110"/>
      <point x="471" y="110" type="qcurve" smooth="yes"/>
      <point x="521" y="110"/>
      <point x="573" y="156"/>
      <point x="592" y="204"/>
    </contour>
  </outline>
</glyph>
<glyph name="uni0045" format="1">
  <advance width="611"/>
  <unicode hex="0045"/>
  <outline>
    <contour>
      <point x="540" y="0" type="line" smooth="yes"/>
      <point x="509" y="0"/>
      <point x="354" y="-1"/>
      <point x="178" y="-2"/>
      <point x="45" y="-3"/>
      <point x="35" y="-3" type="qcurve"/>
      <point x="35" y="19" type="line"/>
      <point x="93" y="20" type="line" smooth="yes"/>
      <point x="101" y="20"/>
      <point x="123" y="30"/>
      <point x="123" y="37" type="qcurve" smooth="yes"/>
      <point x="123" y="204"/>
      <point x="112" y="509"/>
      <point x="110" y="673" type="qcurve" smooth="yes"/>
      <point x="110" y="686"/>
      <point x="78" y="688" type="qcurve"/>
      <point x="78" y="687"/>
      <point x="36" y="689"/>
      <point x="20" y="689" type="qcurve"/>
      <point x="20" y="710" type="line"/>
      <point x="284" y="710" type="line" smooth="yes"/>
      <point x="349" y="710"/>
      <point x="481" y="711"/>
      <point x="548" y="711" type="qcurve"/>
      <point x="548" y="684"/>
      <point x="549" y="595"/>
      <point x="549" y="524"/>
      <point x="549" y="524" type="qcurve"/>
      <point x="549" y="524"/>
      <point x="534" y="523"/>
      <point x="529" y="523" type="qcurve" smooth="yes"/>
      <point x="527" y="523"/>
      <point x="523" y="592"/>
      <point x="520" y="660"/>
      <point x="520" y="660" type="qcurve"/>
      <point x="520" y="680"/>
      <point x="503" y="687"/>
      <point x="480" y="687" type="qcurve" smooth="yes"/>
      <point x="413" y="687"/>
      <point x="263" y="689"/>
      <point x="197" y="689" type="qcurve" smooth="yes"/>
      <point x="142" y="689" type="line"/>
      <point x="145" y="385" type="line"/>
      <point x="176" y="384"/>
      <point x="238" y="384"/>
      <point x="269" y="384" type="qcurve" smooth="yes"/>
      <point x="339" y="384" type="line" smooth="yes"/>
      <point x="356" y="384"/>
      <point x="369" y="384"/>
      <point x="382" y="385" type="qcurve" smooth="yes"/>
      <point x="396" y="386"/>
      <point x="396" y="410" type="qcurve" smooth="yes"/>
      <point x="397" y="502" type="line"/>
      <point x="399" y="502"/>
      <point x="404" y="501"/>
      <point x="407" y="501" type="qcurve" smooth="yes"/>
      <point x="416" y="501" type="line"/>
      <point x="416" y="443"/>
      <point x="419" y="323"/>
      <point x="420" y="264" type="qcurve"/>
      <point x="400" y="263" type="line"/>
      <point x="401" y="333" type="line"/>
      <point x="399" y="364"/>
      <point x="376" y="360" type="qcurve"/>
      <point x="360" y="360"/>
      <point x="234" y="362"/>
      <point x="184" y="362" type="qcurve" smooth="yes"/>
      <point x="148" y="362" type="line"/>
      <point x="148" y="354"/>
      <point x="147" y="337"/>
      <point x="147" y="329" type="qcurve" smooth="yes"/>
      <point x="147" y="255"/>
      <point x="150" y="99"/>
      <point x="152" y="20" type="qcurve"/>
      <point x="510" y="20" type="line" smooth="yes"/>
      <point x="538" y="20"/>
      <point x="537" y="45" type="qcurve" smooth="yes"/>
      <point x="537" y="76"/>
      <point x="536" y="139"/>
      <point x="535" y="170" type="qcurve"/>
      <point x="551" y="170"/>
      <point x="560" y="169" type="qcurve"/>
      <point x="559" y="166"/>
      <point x="559" y="132" type="qcurve" smooth="yes"/>
      <point x="559" y="92"/>
      <point x="561" y="7"/>
      <point x="561" y="0" type="qcurve"/>
    </contour>
  </outline>
</glyph>
<glyph name="uni0046" format="1">
  <advance width="573"/>
  <unicode hex="0046"/>
  <outline>
    <contour>
      <point x="264" y="0" type="qcurve"/>
      <point x="264" y="0"/>
      <point x="201" y="-1"/>
      <point x="116" y="-1"/>
      <point x="43" y="-2"/>
      <point x="32" y="-2" type="qcurve"/>
      <point x="32" y="20" type="line"/>
      <point x="100" y="20" type="line" smooth="yes"/>
      <point x="127" y="20"/>
      <point x="125" y="40" type="qcurve"/>
      <point x="115" y="670" type="line" smooth="yes"/>
      <point x="115" y="678"/>
      <point x="103" y="685"/>
      <point x="80" y="685" type="qcurve" smooth="yes"/>
      <point x="73" y="685"/>
      <point x="27" y="687"/>
      <point x="20" y="687" type="qcurve"/>
      <point x="20" y="710" type="line"/>
      <point x="64" y="709" type="line" smooth="yes"/>
      <point x="125" y="709"/>
      <point x="247" y="710"/>
      <point x="308" y="710" type="qcurve" smooth="yes"/>
      <point x="551" y="710" type="line"/>
      <point x="551" y="637" type="line" smooth="yes"/>
      <point x="551" y="600"/>
      <point x="552" y="531"/>
      <point x="553" y="523" type="qcurve"/>
      <point x="547" y="523"/>
      <point x="535" y="522"/>
      <point x="529" y="523" type="qcurve"/>
      <point x="528" y="543"/>
      <point x="527" y="622"/>
      <point x="527" y="646" type="qcurve" smooth="yes"/>
      <point x="527" y="672"/>
      <point x="518" y="690"/>
      <point x="500" y="690" type="qcurve" smooth="yes"/>
      <point x="448" y="692"/>
      <point x="281" y="688"/>
      <point x="198" y="688" type="qcurve" smooth="yes"/>
      <point x="183" y="688"/>
      <point x="156" y="687"/>
      <point x="144" y="686" type="qcurve"/>
      <point x="143" y="673"/>
      <point x="143" y="646"/>
      <point x="143" y="630" type="qcurve" smooth="yes"/>
      <point x="143" y="560"/>
      <point x="145" y="411"/>
      <point x="146" y="337" type="qcurve"/>
      <point x="172" y="336"/>
      <point x="224" y="336"/>
      <point x="249" y="336" type="qcurve" smooth="yes"/>
      <point x="386" y="334" type="line" smooth="yes"/>
      <point x="397" y="334"/>
      <point x="406" y="348"/>
      <point x="407" y="370" type="qcurve"/>
      <point x="407" y="370"/>
      <point x="409" y="438"/>
      <point x="410" y="454" type="qcurve"/>
      <point x="411" y="454"/>
      <point x="419" y="453"/>
      <point x="421" y="453" type="qcurve" smooth="yes"/>
      <point x="429" y="453" type="line"/>
      <point x="429" y="398"/>
      <point x="431" y="271"/>
      <point x="432" y="216" type="qcurve"/>
      <point x="411" y="216" type="line"/>
      <point x="410" y="240"/>
      <point x="408" y="280"/>
      <point x="408" y="280" type="qcurve"/>
      <point x="407" y="303"/>
      <point x="396" y="312"/>
      <point x="378" y="312" type="qcurve" smooth="yes"/>
      <point x="337" y="312"/>
      <point x="204" y="313"/>
      <point x="172" y="313" type="qcurve" smooth="yes"/>
      <point x="148" y="313" type="line"/>
      <point x="149" y="240"/>
      <point x="149" y="112"/>
      <point x="153" y="40" type="qcurve"/>
      <point x="157" y="21"/>
      <point x="201" y="21" type="qcurve" smooth="yes"/>
      <point x="263" y="21" type="line"/>
      <point x="263" y="16"/>
      <point x="264" y="5"/>
    </contour>
  </outline>
</glyph>
<glyph name="uni004B" format="1">
  <advance width="652"/>
  <unicode hex="004B"/>
  <outline>
    <contour>
      <point x="502" y="670" type="qcurve"/>
      <point x="502" y="674"/>
      <point x="500" y="680"/>
      <point x="477" y="680" type="qcurve" smooth="yes"/>
      <point x="462" y="680"/>
      <point x="429" y="681"/>
      <point x="414" y="681" type="qcurve"/>
      <point x="414" y="703" type="line"/>
      <point x="416" y="703"/>
      <point x="478" y="703"/>
      <point x="562" y="703"/>
      <point x="634" y="702"/>
      <point x="646" y="701" type="qcurve"/>
      <point x="646" y="681" type="line"/>
      <point x="564" y="681" type="line"/>
      <point x="527" y="659"/>
      <point x="473" y="601"/>
      <point x="444" y="571" type="qcurve" smooth="yes"/>
      <point x="264" y="379" type="line"/>
      <point x="300" y="377"/>
      <point x="402" y="362"/>
      <point x="495" y="311"/>
      <point x="517" y="253" type="qcurve" smooth="yes"/>
      <point x="541" y="191"/>
      <point x="546" y="66"/>
      <point x="573" y="-17"/>
      <point x="629" y="-17" type="qcurve" smooth="yes"/>
      <point x="652" y="-17"/>
      <point x="671" y="1"/>
      <point x="673" y="3" type="qcurve"/>
      <point x="682" y="-15" type="line"/>
      <point x="681" y="-17"/>
      <point x="654" y="-41"/>
      <point x="622" y="-41" type="qcurve" smooth="yes"/>
      <point x="563" y="-41"/>
      <point x="525" y="49"/>
      <point x="514" y="180"/>
      <point x="492" y="240" type="qcurve" smooth="yes"/>
      <point x="472" y="290"/>
      <point x="389" y="340"/>
      <point x="294" y="356"/>
      <point x="255" y="355" type="qcurve" smooth="yes"/>
      <point x="235" y="355" type="line"/>
      <point x="235" y="362"/>
      <point x="234" y="374"/>
      <point x="234" y="381" type="qcurve" smooth="yes"/>
      <point x="234" y="382"/>
      <point x="289" y="441"/>
      <point x="368" y="527"/>
      <point x="448" y="612"/>
      <point x="502" y="670"/>
    </contour>
    <contour>
      <point x="133" y="657" type="qcurve" smooth="yes"/>
      <point x="133" y="693"/>
      <point x="90" y="690" type="qcurve" smooth="yes"/>
      <point x="73" y="689"/>
      <point x="36" y="690"/>
      <point x="20" y="690" type="qcurve"/>
      <point x="20" y="690"/>
      <point x="21" y="702"/>
      <point x="21" y="711" type="qcurve"/>
      <point x="272" y="711" type="line"/>
      <point x="272" y="692" type="line"/>
      <point x="204" y="689" type="line"/>
      <point x="188" y="690"/>
      <point x="160" y="678"/>
      <point x="162" y="660" type="qcurve"/>
      <point x="163" y="495"/>
      <point x="160" y="230"/>
      <point x="162" y="63" type="qcurve" smooth="yes"/>
      <point x="162" y="53"/>
      <point x="174" y="32"/>
      <point x="198" y="30" type="qcurve" smooth="yes"/>
      <point x="212" y="29"/>
      <point x="253" y="31"/>
      <point x="268" y="30" type="qcurve"/>
      <point x="268" y="9" type="line"/>
      <point x="50" y="9" type="line"/>
      <point x="48" y="19"/>
      <point x="48" y="30" type="qcurve"/>
      <point x="106" y="30" type="line" smooth="yes"/>
      <point x="136" y="30"/>
      <point x="136" y="62" type="qcurve" smooth="yes"/>
      <point x="134" y="227"/>
      <point x="135" y="499"/>
    </contour>
  </outline>
</glyph>
<glyph name="uni0055" format="1">
  <advance width="739"/>
  <unicode hex="0055"/>
  <outline>
    <contour>
      <point x="600" y="660" type="qcurve" smooth="yes"/>
      <point x="600" y="561"/>
      <point x="601" y="360"/>
      <point x="601" y="249" type="qcurve" smooth="yes"/>
      <point x="601" y="126"/>
      <point x="507" y="-30"/>
      <point x="376" y="-29" type="qcurve" smooth="yes"/>
      <point x="240" y="-28"/>
      <point x="134" y="139"/>
      <point x="134" y="281" type="qcurve" smooth="yes"/>
      <point x="132" y="418" type="line" smooth="yes"/>
      <point x="131" y="481"/>
      <point x="130" y="584"/>
      <point x="130" y="648" type="qcurve" smooth="yes"/>
      <point x="130" y="680"/>
      <point x="100" y="680" type="qcurve" smooth="yes"/>
      <point x="21" y="680" type="line"/>
      <point x="21" y="685"/>
      <point x="20" y="697"/>
      <point x="20" y="702" type="qcurve"/>
      <point x="148" y="702" type="line" smooth="yes"/>
      <point x="181" y="702"/>
      <point x="249" y="702"/>
      <point x="280" y="703" type="qcurve"/>
      <point x="280" y="702"/>
      <point x="279" y="699"/>
      <point x="279" y="697" type="qcurve" smooth="yes"/>
      <point x="279" y="693"/>
      <point x="280" y="685"/>
      <point x="280" y="683" type="qcurve"/>
      <point x="279" y="683"/>
      <point x="230" y="682"/>
      <point x="205" y="681" type="qcurve" smooth="yes"/>
      <point x="160" y="680"/>
      <point x="160" y="650" type="qcurve" smooth="yes"/>
      <point x="160" y="627"/>
      <point x="159" y="596"/>
      <point x="159" y="560" type="qcurve" smooth="yes"/>
      <point x="159" y="520"/>
      <point x="160" y="434"/>
      <point x="160" y="396" type="qcurve" smooth="yes"/>
      <point x="160" y="283" type="line" smooth="yes"/>
      <point x="160" y="151"/>
      <point x="233" y="33"/>
      <point x="334" y="1"/>
      <point x="377" y="-4" type="qcurve"/>
      <point x="469" y="-2"/>
      <point x="554" y="83"/>
      <point x="578" y="200"/>
      <point x="577" y="251" type="qcurve" smooth="yes"/>
      <point x="576" y="307"/>
      <point x="578" y="514"/>
      <point x="575" y="656" type="qcurve" smooth="yes"/>
      <point x="575" y="680"/>
      <point x="540" y="679" type="qcurve"/>
      <point x="528" y="678"/>
      <point x="477" y="680"/>
      <point x="466" y="680" type="qcurve"/>
      <point x="466" y="680"/>
      <point x="467" y="686"/>
      <point x="465" y="702" type="qcurve"/>
      <point x="529" y="702"/>
      <point x="655" y="703"/>
      <point x="719" y="704" type="qcurve"/>
      <point x="718" y="700"/>
      <point x="718" y="686"/>
      <point x="718" y="682" type="qcurve"/>
      <point x="717" y="682"/>
      <point x="652" y="680"/>
      <point x="626" y="680" type="qcurve" smooth="yes"/>
      <point x="608" y="680"/>
      <point x="600" y="663"/>
    </contour>
  </outline>
</glyph>
<glyph name="uni0059" format="1">
  <advance width="644"/>
  <unicode hex="0059"/>
  <outline>
    <contour>
      <point x="200" y="-22" type="qcurve"/>
      <point x="200" y="0" type="line"/>
      <point x="264" y="0" type="line" smooth="yes"/>
      <point x="287" y="0"/>
      <point x="303" y="13"/>
      <point x="304" y="32" type="qcurve"/>
      <point x="304" y="36"/>
      <point x="304" y="92"/>
      <point x="303" y="161"/>
      <point x="303" y="213"/>
      <point x="303" y="213" type="qcurve"/>
      <point x="299" y="224" type="line"/>
      <point x="299" y="223" type="line"/>
      <point x="240" y="342"/>
      <point x="134" y="565"/>
      <point x="77" y="681" type="qcurve"/>
      <point x="58" y="704"/>
      <point x="0" y="699"/>
      <point x="-20" y="700" type="qcurve"/>
      <point x="-20" y="723" type="line"/>
      <point x="13" y="723" type="line" smooth="yes"/>
      <point x="67" y="723"/>
      <point x="165" y="718"/>
      <point x="208" y="718" type="qcurve"/>
      <point x="208" y="714"/>
      <point x="210" y="704"/>
      <point x="209" y="700" type="qcurve"/>
      <point x="148" y="700" type="line" smooth="yes"/>
      <point x="98" y="700"/>
      <point x="109" y="681" type="qcurve"/>
      <point x="319" y="238" type="line"/>
      <point x="337" y="273"/>
      <point x="397" y="408"/>
      <point x="462" y="556"/>
      <point x="512" y="670"/>
      <point x="519" y="684" type="qcurve"/>
      <point x="527" y="704"/>
      <point x="464" y="706"/>
      <point x="441" y="707" type="qcurve"/>
      <point x="441" y="724" type="line"/>
      <point x="503" y="724"/>
      <point x="615" y="719"/>
      <point x="664" y="719" type="qcurve"/>
      <point x="664" y="702" type="line"/>
      <point x="579" y="702" type="line" smooth="yes"/>
      <point x="561" y="702"/>
      <point x="548" y="684"/>
      <point x="539" y="664" type="qcurve" smooth="yes"/>
      <point x="513" y="608"/>
      <point x="443" y="456"/>
      <point x="376" y="309"/>
      <point x="332" y="210"/>
      <point x="332" y="208" type="qcurve"/>
      <point x="329" y="32" type="line"/>
      <point x="329" y="-3"/>
      <point x="362" y="0" type="qcurve"/>
      <point x="362" y="0"/>
      <point x="413" y="1"/>
      <point x="446" y="1" type="qcurve"/>
      <point x="446" y="-9" type="line" smooth="yes"/>
      <point x="446" y="-11"/>
      <point x="447" y="-18"/>
      <point x="447" y="-19" type="qcurve"/>
      <point x="445" y="-19"/>
      <point x="379" y="-20"/>
      <point x="289" y="-20"/>
      <point x="212" y="-21"/>
    </contour>
  </outline>
</glyph>
<glyph name="uni005A" format="1">
  <advance width="599"/>
  <unicode hex="005A"/>
  <outline>
    <contour>
      <point x="40" y="-14" type="qcurve"/>
      <point x="85" y="59" type="line"/>
      <point x="189" y="210"/>
      <point x="398" y="512"/>
      <point x="514" y="680" type="qcurve"/>
      <point x="515" y="680"/>
      <point x="382" y="684"/>
      <point x="184" y="687"/>
      <point x="85" y="687" type="qcurve"/>
      <point x="88" y="623" type="line"/>
      <point x="88" y="509" type="line" smooth="yes"/>
      <point x="88" y="493"/>
      <point x="88" y="460"/>
      <point x="89" y="443" type="qcurve"/>
      <point x="86" y="443"/>
      <point x="78" y="442"/>
      <point x="76" y="442" type="qcurve" smooth="yes"/>
      <point x="64" y="442" type="line"/>
      <point x="58" y="740" type="line"/>
      <point x="75" y="740" type="line"/>
      <point x="79" y="710" type="line"/>
      <point x="161" y="708" type="line" smooth="yes"/>
      <point x="259" y="706"/>
      <point x="476" y="702"/>
      <point x="559" y="702" type="qcurve"/>
      <point x="548" y="683"/>
      <point x="523" y="646"/>
      <point x="512" y="627" type="qcurve"/>
      <point x="81" y="7" type="line"/>
      <point x="485" y="7" type="line"/>
      <point x="498" y="5"/>
      <point x="520" y="32"/>
      <point x="520" y="67" type="qcurve" smooth="yes"/>
      <point x="524" y="177" type="line"/>
      <point x="532" y="177"/>
      <point x="544" y="178"/>
      <point x="547" y="178" type="qcurve"/>
      <point x="547" y="93" type="line" smooth="yes"/>
      <point x="547" y="67"/>
      <point x="545" y="11"/>
      <point x="546" y="-13" type="qcurve"/>
      <point x="427" y="-13"/>
      <point x="159" y="-14"/>
    </contour>
  </outline>
</glyph>
<glyph name="uni005B" format="1">
  <advance width="279"/>
  <unicode hex="005B"/>
  <outline>
    <contour>
      <point x="100" y="738" type="qcurve"/>
      <point x="246" y="733" type="line"/>
      <point x="244" y="712" type="line"/>
      <point x="214" y="712"/>
      <point x="155" y="713"/>
      <point x="125" y="713" type="qcurve"/>
      <point x="125" y="697"/>
      <point x="126" y="573"/>
      <point x="128" y="396"/>
      <point x="131" y="202"/>
      <point x="133" y="25"/>
      <point x="134" y="-99"/>
      <point x="134" y="-115" type="qcurve"/>
      <point x="249" y="-115" type="line"/>
      <point x="246" y="-138" type="line"/>
      <point x="103" y="-138" type="line"/>
      <point x="103" y="-120"/>
      <point x="103" y="12"/>
      <point x="102" y="199"/>
      <point x="102" y="403"/>
      <point x="101" y="589"/>
      <point x="100" y="720"/>
    </contour>
  </outline>
</glyph>
<glyph name="uni005C" format="1">
  <advance width="477"/>
  <unicode hex="005C"/>
  <outline>
    <contour>
      <point x="457" y="-59" type="line"/>
      <point x="429" y="-60" type="line"/>
      <point x="326" y="145"/>
      <point x="122" y="555"/>
      <point x="20" y="760" type="qcurve"/>
      <point x="47" y="759" type="line"/>
    </contour>
  </outline>
</glyph>
<glyph name="uni0061" format="1">
  <advance width="680"/>
  <unicode hex="0061"/>
  <outline>
    <contour>
      <point x="508" y="217" type="qcurve"/>
      <point x="325" y="688" type="line"/>
      <point x="318" y="666"/>
      <point x="274" y="537"/>
      <point x="220" y="378"/>
      <point x="172" y="242"/>
      <point x="161" y="213" type="qcurve"/>
      <point x="174" y="213"/>
      <point x="276" y="214"/>
      <point x="402" y="215"/>
      <point x="500" y="217"/>
    </contour>
    <contour>
      <point x="313" y="732" type="qcurve"/>
      <point x="336" y="733" type="line"/>
      <point x="608" y="45" type="line"/>
      <point x="619" y="27"/>
      <point x="637" y="27" type="qcurve" smooth="yes"/>
      <point x="642" y="27"/>
      <point x="683" y="25"/>
      <point x="687" y="25" type="qcurve" smooth="yes"/>
      <point x="700" y="25" type="line"/>
      <point x="700" y="0" type="line"/>
      <point x="696" y="0"/>
      <point x="671" y="1"/>
      <point x="660" y="1" type="qcurve" smooth="yes"/>
      <point x="648" y="1"/>
      <point x="618" y="0"/>
      <point x="602" y="0" type="qcurve" smooth="yes"/>
      <point x="574" y="-1"/>
      <point x="497" y="-1"/>
      <point x="475" y="-1" type="qcurve"/>
      <point x="475" y="24" type="line"/>
      <point x="557" y="24" type="line"/>
      <point x="582" y="26"/>
      <point x="577" y="40" type="qcurve" smooth="yes"/>
      <point x="560" y="86"/>
      <point x="540" y="141"/>
      <point x="536" y="149" type="qcurve"/>
      <point x="523" y="187" type="line"/>
      <point x="513" y="187"/>
      <point x="473" y="186"/>
      <point x="447" y="186" type="qcurve" smooth="yes"/>
      <point x="389" y="185"/>
      <point x="229" y="184"/>
      <point x="185" y="184" type="qcurve" smooth="yes"/>
      <point x="150" y="184" type="line"/>
      <point x="146" y="168"/>
      <point x="124" y="100"/>
      <point x="104" y="44"/>
      <point x="104" y="44" type="qcurve"/>
      <point x="99" y="35"/>
      <point x="116" y="24"/>
      <point x="127" y="25" type="qcurve"/>
      <point x="188" y="25" type="line"/>
      <point x="187" y="-3" type="line"/>
      <point x="-20" y="0" type="line"/>
      <point x="-20" y="25" type="line"/>
      <point x="44" y="26" type="line" smooth="yes"/>
      <point x="66" y="26"/>
      <point x="77" y="47" type="qcurve"/>
      <point x="90" y="80"/>
      <point x="121" y="171"/>
      <point x="139" y="225" type="qcurve" smooth="yes"/>
      <point x="217" y="458" type="line" smooth="yes"/>
      <point x="247" y="547"/>
      <point x="300" y="698"/>
    </contour>
  </outline>
</glyph>
<glyph name="uni006A" format="1">
  <advance width="296"/>
  <unicode hex="006A"/>
  <outline>
    <contour>
      <point x="163" y="-54" type="qcurve" smooth="yes"/>
      <point x="163" y="23" type="line"/>
      <point x="159" y="168" type="line"/>
      <point x="153" y="355" type="line" smooth="yes"/>
      <point x="151" y="416"/>
      <point x="149" y="555"/>
      <point x="145" y="660" type="qcurve"/>
      <point x="143" y="673"/>
      <point x="124" y="684"/>
      <point x="92" y="684" type="qcurve" smooth="yes"/>
      <point x="14" y="685" type="line"/>
      <point x="14" y="690"/>
      <point x="13" y="700"/>
      <point x="13" y="707" type="qcurve"/>
      <point x="82" y="707"/>
      <point x="144" y="709"/>
      <point x="207" y="710"/>
      <point x="276" y="710" type="qcurve"/>
      <point x="276" y="687" type="line"/>
      <point x="205" y="686" type="line" smooth="yes"/>
      <point x="185" y="686"/>
      <point x="175" y="676"/>
      <point x="175" y="664" type="qcurve" smooth="yes"/>
      <point x="175" y="507"/>
      <point x="185" y="165"/>
      <point x="189" y="7" type="qcurve" smooth="yes"/>
      <point x="191" y="-65" type="line" smooth="yes"/>
      <point x="191" y="-148"/>
      <point x="148" y="-262"/>
      <point x="67" y="-262" type="qcurve" smooth="yes"/>
      <point x="-6" y="-262"/>
      <point x="-50" y="-184"/>
      <point x="-50" y="-146" type="qcurve" smooth="yes"/>
      <point x="-50" y="-128"/>
      <point x="-40" y="-88"/>
      <point x="-22" y="-87" type="qcurve"/>
      <point x="2" y="-87"/>
      <point x="7" y="-118"/>
      <point x="-8" y="-125" type="qcurve" smooth="yes"/>
      <point x="-19" y="-130"/>
      <point x="-26" y="-123" type="qcurve"/>
      <point x="-26" y="-123"/>
      <point x="-28" y="-135"/>
      <point x="-28" y="-147" type="qcurve" smooth="yes"/>
      <point x="-28" y="-173"/>
      <point x="3" y="-239"/>
      <point x="64" y="-239" type="qcurve" smooth="yes"/>
      <point x="114" y="-239"/>
      <point x="155" y="-174"/>
      <point x="163" y="-87"/>
    </contour>
  </outline>
</glyph>
<glyph name="uni006D" format="1">
  <advance width="897"/>
  <unicode hex="006D"/>
  <outline>
    <contour>
      <point x="767" y="683" type="qcurve" smooth="yes"/>
      <point x="774" y="50" type="line" smooth="yes"/>
      <point x="774" y="25"/>
      <point x="837" y="20"/>
      <point x="851" y="20" type="qcurve" smooth="yes"/>
      <point x="861" y="20"/>
      <point x="875" y="21"/>
      <point x="876" y="21" type="qcurve"/>
      <point x="876" y="17"/>
      <point x="876" y="2"/>
      <point x="877" y="0" type="qcurve"/>
      <point x="652" y="0" type="line"/>
      <point x="652" y="5"/>
      <point x="653" y="17"/>
      <point x="653" y="21" type="qcurve"/>
      <point x="710" y="20" type="line" smooth="yes"/>
      <point x="733" y="19"/>
      <point x="748" y="40"/>
      <point x="748" y="50" type="qcurve" smooth="yes"/>
      <point x="743" y="671" type="line"/>
      <point x="478" y="-18" type="line"/>
      <point x="458" y="-18" type="line"/>
      <point x="412" y="78"/>
      <point x="303" y="314"/>
      <point x="193" y="551"/>
      <point x="147" y="647" type="qcurve"/>
      <point x="145" y="60" type="line"/>
      <point x="145" y="45"/>
      <point x="155" y="22"/>
      <point x="172" y="22" type="qcurve" smooth="yes"/>
      <point x="192" y="22"/>
      <point x="238" y="20"/>
      <point x="245" y="20" type="qcurve"/>
      <point x="246" y="-1" type="line"/>
      <point x="226" y="-1"/>
      <point x="181" y="0"/>
      <point x="161" y="0" type="qcurve" smooth="yes"/>
      <point x="22" y="0" type="line"/>
      <point x="22" y="5"/>
      <point x="23" y="17"/>
      <point x="23" y="22" type="qcurve"/>
      <point x="82" y="22" type="line" smooth="yes"/>
      <point x="123" y="22"/>
      <point x="123" y="60" type="qcurve" smooth="yes"/>
      <point x="122" y="394" type="line"/>
      <point x="122" y="650" type="line" smooth="yes"/>
      <point x="122" y="691"/>
      <point x="92" y="690" type="qcurve" smooth="yes"/>
      <point x="21" y="688" type="line"/>
      <point x="20" y="693"/>
      <point x="20" y="705"/>
      <point x="20" y="709" type="qcurve"/>
      <point x="280" y="715" type="line"/>
      <point x="280" y="711"/>
      <point x="279" y="700"/>
      <point x="279" y="692" type="qcurve"/>
      <point x="263" y="692"/>
      <point x="217" y="690"/>
      <point x="202" y="690" type="qcurve" smooth="yes"/>
      <point x="180" y="690"/>
      <point x="165" y="679"/>
      <point x="172" y="660" type="qcurve"/>
      <point x="469" y="29" type="line"/>
      <point x="737" y="716" type="line"/>
      <point x="751" y="716"/>
      <point x="777" y="715"/>
      <point x="791" y="715" type="qcurve" smooth="yes"/>
      <point x="877" y="715" type="line"/>
      <point x="877" y="694" type="line"/>
      <point x="859" y="694"/>
      <point x="802" y="695"/>
      <point x="785" y="693" type="qcurve" smooth="yes"/>
      <point x="767" y="691"/>
    </contour>
  </outline>
</glyph>
<glyph name="uni0077" format="1">
  <advance width="969"/>
  <unicode hex="0077"/>
  <outline>
    <contour>
      <point x="398" y="271" type="line" smooth="yes"/>
      <point x="379" y="196"/>
      <point x="339" y="45"/>
      <point x="319" y="-27" type="qcurve"/>
      <point x="301" y="-26" type="line"/>
      <point x="248" y="140"/>
      <point x="176" y="363"/>
      <point x="125" y="512"/>
      <point x="86" y="615"/>
      <point x="66" y="660" type="qcurve"/>
      <point x="59" y="683"/>
      <point x="2" y="682"/>
      <point x="-19" y="683" type="qcurve"/>
      <point x="-19" y="697"/>
      <point x="-20" y="703" type="qcurve"/>
      <point x="9" y="703" type="line" smooth="yes"/>
      <point x="61" y="703"/>
      <point x="164" y="699"/>
      <point x="206" y="699" type="qcurve"/>
      <point x="206" y="679" type="line"/>
      <point x="158" y="679" type="line" smooth="yes"/>
      <point x="139" y="679"/>
      <point x="108" y="672"/>
      <point x="112" y="650" type="qcurve"/>
      <point x="162" y="492"/>
      <point x="259" y="201"/>
      <point x="312" y="44" type="qcurve"/>
      <point x="352" y="199"/>
      <point x="430" y="495"/>
      <point x="471" y="650" type="qcurve" smooth="yes"/>
      <point x="475" y="667"/>
      <point x="415" y="673"/>
      <point x="392" y="674" type="qcurve"/>
      <point x="392" y="677"/>
      <point x="392" y="692"/>
      <point x="393" y="696" type="qcurve"/>
      <point x="428" y="696" type="line" smooth="yes"/>
      <point x="479" y="696"/>
      <point x="573" y="692"/>
      <point x="616" y="692" type="qcurve"/>
      <point x="616" y="671" type="line"/>
      <point x="581" y="670"/>
      <point x="510" y="670"/>
      <point x="516" y="647" type="qcurve"/>
      <point x="517" y="644"/>
      <point x="554" y="520"/>
      <point x="608" y="341"/>
      <point x="660" y="164"/>
      <point x="696" y="44"/>
      <point x="696" y="44" type="qcurve"/>
      <point x="846" y="650" type="line"/>
      <point x="851" y="679"/>
      <point x="786" y="680"/>
      <point x="767" y="681" type="qcurve"/>
      <point x="767" y="683"/>
      <point x="767" y="696"/>
      <point x="766" y="702" type="qcurve"/>
      <point x="796" y="702" type="line" smooth="yes"/>
      <point x="851" y="702"/>
      <point x="947" y="698"/>
      <point x="989" y="698" type="qcurve"/>
      <point x="989" y="694"/>
      <point x="989" y="679"/>
      <point x="988" y="677" type="qcurve"/>
      <point x="957" y="677" type="line" smooth="yes"/>
      <point x="937" y="677"/>
      <point x="881" y="673"/>
      <point x="876" y="650" type="qcurve"/>
      <point x="858" y="586" type="line" smooth="yes"/>
      <point x="816" y="438"/>
      <point x="739" y="125"/>
      <point x="704" y="-20" type="qcurve"/>
      <point x="686" y="-19" type="line"/>
      <point x="492" y="631" type="line"/>
    </contour>
  </outline>
</glyph>
<glyph name="uni007C" format="1">
  <advance width="231"/>
  <unicode hex="007C"/>
  <outline>
    <contour>
      <point x="128" y="-137" type="line"/>
      <point x="100" y="-137" type="line"/>
      <point x="100" y="83"/>
      <point x="102" y="522"/>
      <point x="102" y="744" type="qcurve"/>
      <point x="102" y="744"/>
      <point x="130" y="747"/>
      <point x="131" y="747" type="qcurve"/>
      <point x="131" y="689" type="line" smooth="yes"/>
      <point x="131" y="632"/>
      <point x="130" y="425"/>
      <point x="129" y="187"/>
      <point x="128" y="-23"/>
      <point x="128" y="-81" type="qcurve" smooth="yes"/>
    </contour>
  </outline>
</glyph>
<glyph name="uni007D" format="1">
  <advance width="334"/>
  <unicode hex="007D"/>
  <outline>
    <contour>
      <point x="304" y="312" type="qcurve"/>
      <point x="304" y="289" type="line"/>
      <point x="242" y="287"/>
      <point x="210" y="222"/>
      <point x="210" y="172" type="qcurve" smooth="yes"/>
      <point x="210" y="159"/>
      <point x="210" y="134"/>
      <point x="211" y="121" type="qcurve" smooth="yes"/>
      <point x="214" y="35" type="line"/>
      <point x="214" y="16" type="line" smooth="yes"/>
      <point x="214" y="-82"/>
      <point x="122" y="-139"/>
      <point x="11" y="-139" type="qcurve" smooth="yes"/>
      <point x="7" y="-139"/>
      <point x="2" y="-138"/>
      <point x="0" y="-138" type="qcurve"/>
      <point x="0" y="-119" type="line"/>
      <point x="103" y="-119"/>
      <point x="187" y="-69"/>
      <point x="187" y="26" type="qcurve" smooth="yes"/>
      <point x="187" y="55"/>
      <point x="183" y="137"/>
      <point x="183" y="180" type="qcurve" smooth="yes"/>
      <point x="183" y="238"/>
      <point x="220" y="285"/>
      <point x="261" y="296"/>
      <point x="268" y="299" type="qcurve"/>
      <point x="266" y="301"/>
      <point x="225" y="310"/>
      <point x="186" y="346"/>
      <point x="184" y="387" type="qcurve"/>
      <point x="183" y="395"/>
      <point x="183" y="411"/>
      <point x="183" y="419" type="qcurve" smooth="yes"/>
      <point x="183" y="457"/>
      <point x="187" y="537"/>
      <point x="187" y="567" type="qcurve" smooth="yes"/>
      <point x="187" y="654"/>
      <point x="132" y="728"/>
      <point x="56" y="728" type="qcurve" smooth="yes"/>
      <point x="5" y="728" type="line"/>
      <point x="5" y="748" type="line"/>
      <point x="7" y="749"/>
      <point x="30" y="748"/>
      <point x="48" y="749" type="qcurve"/>
      <point x="55" y="749" type="line" smooth="yes"/>
      <point x="141" y="749"/>
      <point x="214" y="677"/>
      <point x="214" y="591" type="qcurve" smooth="yes"/>
      <point x="214" y="576" type="line"/>
      <point x="211" y="504" type="line" smooth="yes"/>
      <point x="210" y="485"/>
      <point x="210" y="446"/>
      <point x="209" y="427" type="qcurve"/>
      <point x="209" y="375"/>
      <point x="243" y="313"/>
    </contour>
  </outline>
</glyph>
<glyph name="uni00A6" format="1">
  <advance width="234"/>
  <unicode hex="00A6"/>
  <outline>
    <contour>
      <point x="130" y="377" type="qcurve"/>
      <point x="100" y="377" type="line"/>
      <point x="103" y="743" type="line"/>
      <point x="132" y="743" type="line"/>
      <point x="130" y="616"/>
      <point x="130" y="479"/>
      <point x="131" y="407"/>
    </contour>
    <contour>
      <point x="134" y="223" type="qcurve"/>
      <point x="132" y="-20" type="line"/>
      <point x="132" y="-50"/>
      <point x="131" y="-113"/>
      <point x="131" y="-141" type="qcurve"/>
      <point x="104" y="-141" type="line"/>
      <point x="107" y="224" type="line"/>
      <point x="112" y="224"/>
      <point x="128" y="224"/>
    </contour>
  </outline>
</glyph>
<glyph name="uni00AC" format="1">
  <advance width="415"/>
  <unicode hex="00AC"/>
  <outline>
    <contour>
      <point x="361" y="164" type="line"/>
      <point x="361" y="278" type="line"/>
      <point x="30" y="278" type="line"/>
      <point x="30" y="304" type="line"/>
      <point x="385" y="302" type="line"/>
      <point x="385" y="164" type="line"/>
    </contour>
  </outline>
</glyph>
<glyph name="uni00B0" format="1">
  <advance width="331"/>
  <unicode hex="00B0"/>
  <outline>
    <contour>
      <point x="166" y="700" type="qcurve" smooth="yes"/>
      <point x="236" y="699"/>
      <point x="300" y="617"/>
      <point x="300" y="556" type="qcurve"/>
      <point x="299" y="490"/>
      <point x="213" y="431"/>
      <point x="166" y="432" type="qcurve" smooth="yes"/>
      <point x="113" y="434"/>
      <point x="28" y="494"/>
      <point x="30" y="564" type="qcurve" smooth="yes"/>
      <point x="31" y="603"/>
      <point x="90" y="701"/>
    </contour>
    <contour>
      <point x="166" y="677" type="qcurve" smooth="yes"/>
      <point x="108" y="677"/>
      <point x="55" y="601"/>
      <point x="55" y="566" type="qcurve" smooth="yes"/>
      <point x="55" y="507"/>
      <point x="120" y="455"/>
      <point x="166" y="455" type="qcurve" smooth="yes"/>
      <point x="230" y="455"/>
      <point x="277" y="532"/>
      <point x="277" y="557" type="qcurve" smooth="yes"/>
      <point x="277" y="590"/>
      <point x="233" y="677"/>
    </contour>
  </outline>
</glyph>
<glyph name="uni00B1" format="1">
  <advance width="415"/>
  <unicode hex="00B1"/>
  <outline>
    <contour>
      <point x="31" y="88" type="line"/>
      <point x="31" y="93"/>
      <point x="33" y="105"/>
      <point x="33" y="111" type="qcurve"/>
      <point x="195" y="111" type="line"/>
      <point x="195" y="152"/>
      <point x="195" y="231"/>
      <point x="194" y="271" type="qcurve"/>
      <point x="30" y="271" type="line"/>
      <point x="30" y="297" type="line"/>
      <point x="194" y="295" type="line"/>
      <point x="194" y="314"/>
      <point x="193" y="350"/>
      <point x="193" y="368" type="qcurve" smooth="yes"/>
      <point x="193" y="475" type="line"/>
      <point x="218" y="475" type="line"/>
      <point x="218" y="368" type="line" smooth="yes"/>
      <point x="218" y="349"/>
      <point x="219" y="315"/>
      <point x="219" y="296" type="qcurve"/>
      <point x="239" y="296"/>
      <point x="279" y="295"/>
      <point x="299" y="295" type="qcurve" smooth="yes"/>
      <point x="385" y="295" type="line"/>
      <point x="385" y="271" type="line"/>
      <point x="219" y="271" type="line"/>
      <point x="219" y="111" type="line"/>
      <point x="383" y="111" type="line"/>
      <point x="383" y="110"/>
      <point x="382" y="102"/>
      <point x="382" y="99" type="qcurve" smooth="yes"/>
      <point x="382" y="88" type="line"/>
    </contour>
  </outline>
</glyph>
<glyph name="uni00B5" format="1">
  <advance width="557"/>
  <unicode hex="00B5"/>
  <outline>
    <contour>
      <point x="220" y="-213" type="line"/>
      <point x="215" y="-214"/>
      <point x="131" y="-215"/>
      <point x="38" y="-215"/>
      <point x="20" y="-215" type="qcurve"/>
      <point x="20" y="-192" type="line"/>
      <point x="55" y="-192" type="line" smooth="yes"/>
      <point x="84" y="-192"/>
      <point x="102" y="-177"/>
      <point x="102" y="-156" type="qcurve" smooth="yes"/>
      <point x="101" y="-72" type="line" smooth="yes"/>
      <point x="102" y="-2"/>
      <point x="102" y="83"/>
      <point x="102" y="106" type="qcurve" smooth="yes"/>
      <point x="102" y="159" type="line" smooth="yes"/>
      <point x="102" y="208"/>
      <point x="101" y="335"/>
      <point x="100" y="430"/>
      <point x="100" y="430" type="qcurve"/>
      <point x="100" y="445"/>
      <point x="77" y="456"/>
      <point x="66" y="456" type="qcurve" smooth="yes"/>
      <point x="20" y="456" type="line"/>
      <point x="20" y="479" type="line"/>
      <point x="26" y="479"/>
      <point x="46" y="478"/>
      <point x="58" y="478" type="qcurve" smooth="yes"/>
      <point x="194" y="478" type="line" smooth="yes"/>
      <point x="204" y="478"/>
      <point x="218" y="477"/>
      <point x="219" y="477" type="qcurve"/>
      <point x="219" y="466"/>
      <point x="218" y="460" type="qcurve"/>
      <point x="158" y="460" type="line" smooth="yes"/>
      <point x="128" y="460"/>
      <point x="126" y="430" type="qcurve"/>
      <point x="126" y="358"/>
      <point x="128" y="229"/>
      <point x="129" y="156" type="qcurve" smooth="yes"/>
      <point x="129" y="115"/>
      <point x="181" y="21"/>
      <point x="270" y="21" type="qcurve" smooth="yes"/>
      <point x="275" y="21" type="line" smooth="yes"/>
      <point x="339" y="21"/>
      <point x="403" y="94"/>
      <point x="428" y="167"/>
      <point x="431" y="167" type="qcurve"/>
      <point x="430" y="237"/>
      <point x="430" y="360"/>
      <point x="429" y="430" type="qcurve" smooth="yes"/>
      <point x="429" y="438"/>
      <point x="418" y="453"/>
      <point x="400" y="453" type="qcurve" smooth="yes"/>
      <point x="346" y="453" type="line"/>
      <point x="346" y="458"/>
      <point x="345" y="469"/>
      <point x="345" y="474" type="qcurve"/>
      <point x="354" y="475"/>
      <point x="425" y="475"/>
      <point x="505" y="475"/>
      <point x="524" y="475" type="qcurve"/>
      <point x="524" y="453" type="line"/>
      <point x="482" y="453" type="line" smooth="yes"/>
      <point x="472" y="453"/>
      <point x="454" y="445"/>
      <point x="454" y="434" type="qcurve" smooth="yes"/>
      <point x="454" y="386"/>
      <point x="454" y="305"/>
      <point x="455" y="258" type="qcurve" smooth="yes"/>
      <point x="458" y="44" type="line"/>
      <point x="460" y="26"/>
      <point x="477" y="19"/>
      <point x="489" y="18" type="qcurve" smooth="yes"/>
      <point x="506" y="17"/>
      <point x="537" y="16"/>
      <point x="537" y="16" type="qcurve"/>
      <point x="537" y="0" type="line"/>
      <point x="432" y="0" type="line"/>
      <point x="432" y="127" type="line"/>
      <point x="429" y="121"/>
      <point x="398" y="57"/>
      <point x="332" y="-2"/>
      <point x="274" y="-2" type="qcurve" smooth="yes"/>
      <point x="159" y="-2"/>
      <point x="126" y="74" type="qcurve"/>
      <point x="126" y="-160" type="line"/>
      <point x="128" y="-183"/>
      <point x="148" y="-192"/>
      <point x="158" y="-192" type="qcurve" smooth="yes"/>
      <point x="220" y="-191" type="line"/>
    </contour>
  </outline>
</glyph>
<glyph name="uni00B6" format="1">
  <advance width="426"/>
  <unicode hex="00B6"/>
  <outline>
    <contour>
      <point x="288" y="-199" type="qcurve" smooth="yes"/>
      <point x="287" y="-101"/>
      <point x="288" y="95"/>
      <point x="283" y="252" type="qcurve"/>
      <point x="271" y="250"/>
      <point x="260" y="250" type="qcurve" smooth="yes"/>
      <point x="224" y="250"/>
      <point x="115" y="276"/>
      <point x="30" y="366"/>
      <point x="30" y="461" type="qcurve" smooth="yes"/>
      <point x="30" y="549"/>
      <point x="91" y="647"/>
      <point x="177" y="690"/>
      <point x="255" y="700"/>
      <point x="272" y="700" type="qcurve" smooth="yes"/>
      <point x="282" y="700" type="line"/>
      <point x="295" y="701"/>
      <point x="345" y="701"/>
      <point x="406" y="701" type="qcurve"/>
      <point x="406" y="677" type="line"/>
      <point x="303" y="677" type="line"/>
      <point x="307" y="388" type="line" smooth="yes"/>
      <point x="309" y="259"/>
      <point x="315" y="-6"/>
      <point x="316" y="-133" type="qcurve" smooth="yes"/>
      <point x="316" y="-210" type="line" smooth="yes"/>
      <point x="316" y="-292"/>
      <point x="271" y="-406"/>
      <point x="191" y="-406" type="qcurve" smooth="yes"/>
      <point x="118" y="-406"/>
      <point x="73" y="-335"/>
      <point x="73" y="-298" type="qcurve" smooth="yes"/>
      <point x="73" y="-273"/>
      <point x="84" y="-223"/>
      <point x="104" y="-223" type="qcurve" smooth="yes"/>
      <point x="121" y="-223"/>
      <point x="128" y="-244"/>
      <point x="128" y="-249" type="qcurve" smooth="yes"/>
      <point x="128" y="-268"/>
      <point x="109" y="-268" type="qcurve" smooth="yes"/>
      <point x="104" y="-268"/>
      <point x="99" y="-265" type="qcurve"/>
      <point x="95" y="-265"/>
      <point x="95" y="-291" type="qcurve" smooth="yes"/>
      <point x="95" y="-318"/>
      <point x="124" y="-384"/>
      <point x="188" y="-384" type="qcurve" smooth="yes"/>
      <point x="239" y="-384"/>
      <point x="280" y="-319"/>
      <point x="288" y="-232"/>
    </contour>
  </outline>
</glyph>
<glyph name="uni00B7" format="1">
  <advance width="175"/>
  <unicode hex="00B7"/>
  <outline>
    <contour>
      <point x="89" y="311" type="qcurve" smooth="yes"/>
      <point x="110" y="311"/>
      <point x="110" y="288" type="qcurve" smooth="yes"/>
      <point x="110" y="266"/>
      <point x="88" y="266" type="qcurve" smooth="yes"/>
      <point x="65" y="266"/>
      <point x="65" y="287" type="qcurve" smooth="yes"/>
      <point x="65" y="311"/>
    </contour>
  </outline>
</glyph>
<glyph name="uni0413" format="1">
  <advance width="543"/>
  <unicode hex="0413"/>
  <outline>
    <contour>
      <point x="90" y="691" type="qcurve" smooth="yes"/>
      <point x="27" y="692" type="line"/>
      <point x="27" y="715" type="line"/>
      <point x="523" y="715" type="line"/>
      <point x="523" y="529" type="line"/>
      <point x="499" y="529" type="line"/>
      <point x="499" y="570"/>
      <point x="498" y="624"/>
      <point x="498" y="652" type="qcurve" smooth="yes"/>
      <point x="497" y="689"/>
      <point x="473" y="689" type="qcurve" smooth="yes"/>
      <point x="185" y="690" type="line" smooth="yes"/>
      <point x="153" y="690"/>
      <point x="153" y="648" type="qcurve" smooth="yes"/>
      <point x="153" y="58" type="line" smooth="yes"/>
      <point x="153" y="28"/>
      <point x="183" y="29" type="qcurve" smooth="yes"/>
      <point x="201" y="30"/>
      <point x="269" y="29"/>
      <point x="287" y="29" type="qcurve"/>
      <point x="287" y="7" type="line"/>
      <point x="252" y="7"/>
      <point x="180" y="4"/>
      <point x="144" y="3" type="qcurve" smooth="yes"/>
      <point x="20" y="0" type="line"/>
      <point x="20" y="23" type="line"/>
      <point x="47" y="25"/>
      <point x="90" y="25"/>
      <point x="100" y="25" type="qcurve" smooth="yes"/>
      <point x="128" y="25"/>
      <point x="128" y="56" type="qcurve" smooth="yes"/>
      <point x="128" y="115"/>
      <point x="129" y="308"/>
      <point x="129" y="403" type="qcurve" smooth="yes"/>
      <point x="129" y="576" type="line" smooth="yes"/>
      <point x="128" y="618"/>
      <point x="127" y="648"/>
      <point x="127" y="655" type="qcurve"/>
      <point x="129" y="678"/>
      <point x="104" y="691"/>
    </contour>
  </outline>
</glyph>
<glyph name="uni041C" format="1">
  <advance width="922"/>
  <unicode hex="041C"/>
  <outline>
    <contour>
      <point x="769" y="667" type="qcurve" smooth="yes"/>
      <point x="774" y="494"/>
      <point x="792" y="214"/>
      <point x="797" y="50" type="qcurve" smooth="yes"/>
      <point x="797" y="22"/>
      <point x="822" y="22" type="qcurve" smooth="yes"/>
      <point x="832" y="22"/>
      <point x="900" y="21"/>
      <point x="901" y="21" type="qcurve"/>
      <point x="901" y="17"/>
      <point x="901" y="2"/>
      <point x="902" y="0" type="qcurve"/>
      <point x="674" y="0" type="line"/>
      <point x="674" y="5"/>
      <point x="675" y="17"/>
      <point x="675" y="21" type="qcurve"/>
      <point x="740" y="20" type="line" smooth="yes"/>
      <point x="766" y="20"/>
      <point x="766" y="46" type="qcurve" smooth="yes"/>
      <point x="762" y="141"/>
      <point x="759" y="310"/>
      <point x="755" y="404" type="qcurve" smooth="yes"/>
      <point x="743" y="671" type="line"/>
      <point x="478" y="-18" type="line"/>
      <point x="467" y="-3"/>
      <point x="443" y="30"/>
      <point x="432" y="46" type="qcurve"/>
      <point x="363" y="189"/>
      <point x="216" y="502"/>
      <point x="147" y="647" type="qcurve"/>
      <point x="142" y="47" type="line"/>
      <point x="142" y="20"/>
      <point x="162" y="20" type="qcurve" smooth="yes"/>
      <point x="246" y="20" type="line"/>
      <point x="246" y="-1" type="line"/>
      <point x="226" y="-1"/>
      <point x="181" y="0"/>
      <point x="161" y="0" type="qcurve" smooth="yes"/>
      <point x="22" y="0" type="line"/>
      <point x="22" y="5"/>
      <point x="23" y="17"/>
      <point x="23" y="22" type="qcurve"/>
      <point x="95" y="20" type="line" smooth="yes"/>
      <point x="112" y="19"/>
      <point x="119" y="35"/>
      <point x="119" y="50" type="qcurve" smooth="yes"/>
      <point x="122" y="394" type="line" smooth="yes"/>
      <point x="123" y="467"/>
      <point x="122" y="582"/>
      <point x="122" y="655" type="qcurve" smooth="yes"/>
      <point x="122" y="668"/>
      <point x="113" y="685"/>
      <point x="85" y="686" type="qcurve" smooth="yes"/>
      <point x="21" y="688" type="line"/>
      <point x="20" y="709" type="line"/>
      <point x="280" y="715" type="line"/>
      <point x="280" y="711"/>
      <point x="279" y="700"/>
      <point x="279" y="692" type="qcurve"/>
      <point x="265" y="692"/>
      <point x="211" y="691"/>
      <point x="197" y="690" type="qcurve" smooth="yes"/>
      <point x="169" y="689"/>
      <point x="168" y="678" type="qcurve"/>
      <point x="469" y="29" type="line"/>
      <point x="737" y="716" type="line"/>
      <point x="751" y="716"/>
      <point x="780" y="715"/>
      <point x="794" y="715" type="qcurve" smooth="yes"/>
      <point x="880" y="715" type="line"/>
      <point x="880" y="694" type="line"/>
      <point x="859" y="694"/>
      <point x="818" y="695"/>
      <point x="798" y="695" type="qcurve" smooth="yes"/>
      <point x="790" y="695"/>
      <point x="768" y="684"/>
    </contour>
  </outline>
</glyph>
<glyph name="uni0428" format="1">
  <advance width="901"/>
  <unicode hex="0428"/>
  <outline>
    <contour>
      <point x="453" y="659" type="qcurve"/>
      <point x="452" y="669"/>
      <point x="435" y="683"/>
      <point x="403" y="683" type="qcurve" smooth="yes"/>
      <point x="333" y="683" type="line"/>
      <point x="330" y="705" type="line"/>
      <point x="395" y="707"/>
      <point x="518" y="709"/>
      <point x="583" y="710" type="qcurve"/>
      <point x="583" y="686" type="line"/>
      <point x="520" y="686" type="line" smooth="yes"/>
      <point x="489" y="686"/>
      <point x="480" y="664"/>
      <point x="480" y="656" type="qcurve" smooth="yes"/>
      <point x="484" y="52" type="line" smooth="yes"/>
      <point x="484" y="30"/>
      <point x="492" y="24" type="qcurve"/>
      <point x="757" y="24" type="line"/>
      <point x="761" y="185"/>
      <point x="752" y="503"/>
      <point x="756" y="664" type="qcurve" smooth="yes"/>
      <point x="756" y="687"/>
      <point x="726" y="687" type="qcurve"/>
      <point x="726" y="687"/>
      <point x="666" y="689"/>
      <point x="648" y="689" type="qcurve"/>
      <point x="648" y="707" type="line"/>
      <point x="875" y="707" type="line"/>
      <point x="873" y="687" type="line"/>
      <point x="805" y="687" type="line" smooth="yes"/>
      <point x="780" y="687"/>
      <point x="783" y="667" type="qcurve"/>
      <point x="784" y="47" type="line" smooth="yes"/>
      <point x="784" y="32"/>
      <point x="800" y="27"/>
      <point x="812" y="27" type="qcurve" smooth="yes"/>
      <point x="826" y="27"/>
      <point x="867" y="25"/>
      <point x="881" y="25" type="qcurve"/>
      <point x="881" y="23"/>
      <point x="880" y="11"/>
      <point x="880" y="-1" type="qcurve"/>
      <point x="20" y="-1" type="line"/>
      <point x="20" y="11" type="line" smooth="yes"/>
      <point x="20" y="14"/>
      <point x="21" y="22"/>
      <point x="21" y="23" type="qcurve"/>
      <point x="32" y="23"/>
      <point x="92" y="24"/>
      <point x="92" y="24" type="qcurve"/>
      <point x="124" y="24"/>
      <point x="124" y="56" type="qcurve" smooth="yes"/>
      <point x="124" y="214"/>
      <point x="121" y="484"/>
      <point x="124" y="654" type="qcurve" smooth="yes"/>
      <point x="124" y="684"/>
      <point x="88" y="684" type="qcurve" smooth="yes"/>
      <point x="34" y="684" type="line"/>
      <point x="34" y="707" type="line"/>
      <point x="46" y="708"/>
      <point x="85" y="708"/>
      <point x="108" y="708" type="qcurve" smooth="yes"/>
      <point x="154" y="708"/>
      <point x="246" y="707"/>
      <point x="256" y="706" type="qcurve"/>
      <point x="251" y="685" type="line"/>
      <point x="233" y="685"/>
      <point x="187" y="684"/>
      <point x="173" y="684" type="qcurve" smooth="yes"/>
      <point x="150" y="684"/>
      <point x="150" y="654" type="qcurve" smooth="yes"/>
      <point x="150" y="25" type="line"/>
      <point x="448" y="24" type="line"/>
      <point x="456" y="31"/>
      <point x="456" y="52" type="qcurve" smooth="yes"/>
      <point x="452" y="219"/>
      <point x="455" y="498"/>
    </contour>
  </outline>
</glyph>
<glyph name="uni0429" format="1">
  <advance width="933"/>
  <unicode hex="0429"/>
  <outline>
    <contour>
      <point x="887" y="-159" type="qcurve" smooth="yes"/>
      <point x="885" y="-159"/>
      <point x="882" y="-158"/>
      <point x="881" y="-158" type="qcurve"/>
      <point x="880" y="-126"/>
      <point x="879" y="-51"/>
      <point x="874" y="-21" type="qcurve" smooth="yes"/>
      <point x="871" y="-1"/>
      <point x="846" y="2" type="qcurve"/>
      <point x="20" y="-1" type="line"/>
      <point x="20" y="21" type="line"/>
      <point x="67" y="21" type="line" smooth="yes"/>
      <point x="104" y="21"/>
      <point x="113" y="38"/>
      <point x="113" y="87" type="qcurve" smooth="yes"/>
      <point x="113" y="140"/>
      <point x="114" y="229"/>
      <point x="114" y="281" type="qcurve" smooth="yes"/>
      <point x="114" y="426" type="line" smooth="yes"/>
      <point x="114" y="476"/>
      <point x="116" y="616"/>
      <point x="116" y="665" type="qcurve" smooth="yes"/>
      <point x="116" y="676"/>
      <point x="109" y="689"/>
      <point x="86" y="689" type="qcurve" smooth="yes"/>
      <point x="24" y="688" type="line"/>
      <point x="24" y="706" type="line"/>
      <point x="44" y="707"/>
      <point x="141" y="707"/>
      <point x="179" y="707" type="qcurve" smooth="yes"/>
      <point x="206" y="707"/>
      <point x="246" y="706"/>
      <point x="246" y="706" type="qcurve"/>
      <point x="246" y="685" type="line"/>
      <point x="182" y="685" type="line" smooth="yes"/>
      <point x="168" y="685"/>
      <point x="146" y="680"/>
      <point x="146" y="665" type="qcurve"/>
      <point x="142" y="23" type="line"/>
      <point x="217" y="23" type="line" smooth="yes"/>
      <point x="262" y="23"/>
      <point x="384" y="23"/>
      <point x="450" y="24" type="qcurve"/>
      <point x="448" y="644" type="line" smooth="yes"/>
      <point x="447" y="669"/>
      <point x="422" y="679"/>
      <point x="406" y="680" type="qcurve"/>
      <point x="389" y="682"/>
      <point x="334" y="680"/>
      <point x="321" y="680" type="qcurve"/>
      <point x="319" y="700" type="line"/>
      <point x="385" y="700"/>
      <point x="518" y="703"/>
      <point x="585" y="703" type="qcurve"/>
      <point x="585" y="682" type="line"/>
      <point x="570" y="682"/>
      <point x="533" y="682"/>
      <point x="516" y="680" type="qcurve" smooth="yes"/>
      <point x="503" y="679"/>
      <point x="476" y="673"/>
      <point x="476" y="650" type="qcurve" smooth="yes"/>
      <point x="476" y="580"/>
      <point x="475" y="460"/>
      <point x="476" y="385" type="qcurve" smooth="yes"/>
      <point x="478" y="25" type="line"/>
      <point x="594" y="26"/>
      <point x="774" y="26"/>
      <point x="783" y="26" type="qcurve"/>
      <point x="779" y="655" type="line" smooth="yes"/>
      <point x="779" y="677"/>
      <point x="768" y="689"/>
      <point x="756" y="690" type="qcurve" smooth="yes"/>
      <point x="739" y="691"/>
      <point x="690" y="690"/>
      <point x="670" y="691" type="qcurve"/>
      <point x="670" y="711" type="line"/>
      <point x="897" y="709" type="line"/>
      <point x="895" y="687" type="line"/>
      <point x="830" y="687" type="line" smooth="yes"/>
      <point x="817" y="687"/>
      <point x="806" y="678"/>
      <point x="806" y="660" type="qcurve" smooth="yes"/>
      <point x="806" y="557" type="line" smooth="yes"/>
      <point x="806" y="457"/>
      <point x="810" y="257"/>
      <point x="810" y="156" type="qcurve" smooth="yes"/>
      <point x="810" y="94" type="line" smooth="yes"/>
      <point x="810" y="77"/>
      <point x="811" y="25"/>
      <point x="829" y="25" type="qcurve" smooth="yes"/>
      <point x="834" y="25"/>
      <point x="849" y="25"/>
      <point x="903" y="26" type="qcurve"/>
      <point x="903" y="-15"/>
      <point x="903" y="-115"/>
      <point x="902" y="-158" type="qcurve"/>
      <point x="900" y="-158"/>
      <point x="891" y="-159"/>
    </contour>
  </outline>
</glyph>
<glyph name="uni042A" format="1">
  <advance width="628"/>
  <unicode hex="042A"/>
  <outline>
    <contour>
      <point x="267" y="24" type="qcurve" smooth="yes"/>
      <point x="342" y="24" type="line" smooth="yes"/>
      <point x="453" y="24"/>
      <point x="548" y="105"/>
      <point x="569" y="205"/>
      <point x="569" y="233" type="qcurve" smooth="yes"/>
      <point x="569" y="339"/>
      <point x="457" y="420"/>
      <point x="287" y="432"/>
      <point x="198" y="434" type="qcurve"/>
      <point x="198" y="25" type="line"/>
      <point x="215" y="25"/>
      <point x="250" y="24"/>
    </contour>
    <contour>
      <point x="168" y="692" type="qcurve"/>
      <point x="73" y="693" type="line" smooth="yes"/>
      <point x="61" y="693"/>
      <point x="43" y="688"/>
      <point x="43" y="666" type="qcurve" smooth="yes"/>
      <point x="43" y="529" type="line"/>
      <point x="20" y="529" type="line"/>
      <point x="20" y="529"/>
      <point x="21" y="603"/>
      <point x="21" y="694"/>
      <point x="21" y="719" type="qcurve"/>
      <point x="24" y="719"/>
      <point x="106" y="718"/>
      <point x="212" y="716"/>
      <point x="295" y="715"/>
      <point x="299" y="715" type="qcurve"/>
      <point x="300" y="693" type="line"/>
      <point x="296" y="693"/>
      <point x="247" y="694"/>
      <point x="242" y="694" type="qcurve" smooth="yes"/>
      <point x="222" y="694"/>
      <point x="197" y="687"/>
      <point x="197" y="656" type="qcurve" smooth="yes"/>
      <point x="197" y="645"/>
      <point x="198" y="585"/>
      <point x="198" y="527"/>
      <point x="198" y="516" type="qcurve" smooth="yes"/>
      <point x="198" y="501"/>
      <point x="197" y="472"/>
      <point x="197" y="457" type="qcurve"/>
      <point x="302" y="455" type="line" smooth="yes"/>
      <point x="316" y="455"/>
      <point x="347" y="454"/>
      <point x="361" y="454" type="qcurve" smooth="yes"/>
      <point x="454" y="454"/>
      <point x="597" y="350"/>
      <point x="597" y="246" type="qcurve" smooth="yes"/>
      <point x="597" y="226"/>
      <point x="589" y="146"/>
      <point x="546" y="61"/>
      <point x="443" y="1"/>
      <point x="348" y="1" type="qcurve" smooth="yes"/>
      <point x="329" y="1"/>
      <point x="289" y="2"/>
      <point x="269" y="2" type="qcurve" smooth="yes"/>
      <point x="81" y="4" type="line"/>
      <point x="81" y="9"/>
      <point x="80" y="22"/>
      <point x="80" y="25" type="qcurve"/>
      <point x="80" y="25"/>
      <point x="117" y="26"/>
      <point x="136" y="25" type="qcurve" smooth="yes"/>
      <point x="159" y="24"/>
      <point x="169" y="52"/>
      <point x="169" y="68" type="qcurve" smooth="yes"/>
      <point x="169" y="233"/>
      <point x="167" y="526"/>
    </contour>
  </outline>
</glyph>
<glyph name="uni042B" format="1">
  <advance width="837"/>
  <unicode hex="042B"/>
  <outline>
    <contour>
      <point x="148" y="25" type="line"/>
      <point x="286" y="25" type="line" smooth="yes"/>
      <point x="396" y="25"/>
      <point x="491" y="107"/>
      <point x="513" y="207"/>
      <point x="513" y="235" type="qcurve" smooth="yes"/>
      <point x="513" y="325"/>
      <point x="397" y="431"/>
      <point x="303" y="432" type="qcurve" smooth="yes"/>
      <point x="148" y="434" type="line"/>
    </contour>
    <contour>
      <point x="672" y="657" type="qcurve"/>
      <point x="669" y="690"/>
      <point x="632" y="690" type="qcurve" smooth="yes"/>
      <point x="549" y="690" type="line"/>
      <point x="547" y="711" type="line"/>
      <point x="816" y="715" type="line"/>
      <point x="816" y="702"/>
      <point x="817" y="695" type="qcurve"/>
      <point x="730" y="690" type="line"/>
      <point x="705" y="690"/>
      <point x="705" y="657" type="qcurve" smooth="yes"/>
      <point x="705" y="506"/>
      <point x="706" y="214"/>
      <point x="707" y="63" type="qcurve"/>
      <point x="710" y="26"/>
      <point x="746" y="24" type="qcurve"/>
      <point x="816" y="24" type="line"/>
      <point x="817" y="4" type="line"/>
      <point x="798" y="4"/>
      <point x="760" y="3"/>
      <point x="745" y="3" type="qcurve" smooth="yes"/>
      <point x="687" y="3" type="line" smooth="yes"/>
      <point x="661" y="3"/>
      <point x="605" y="4"/>
      <point x="568" y="6" type="qcurve"/>
      <point x="568" y="25" type="line"/>
      <point x="640" y="24" type="line" smooth="yes"/>
      <point x="680" y="22"/>
      <point x="679" y="62" type="qcurve" smooth="yes"/>
      <point x="678" y="106"/>
      <point x="680" y="161"/>
      <point x="679" y="205" type="qcurve" smooth="yes"/>
      <point x="677" y="323" type="line" smooth="yes"/>
      <point x="676" y="415"/>
      <point x="674" y="563"/>
    </contour>
    <contour>
      <point x="169" y="692" type="line" smooth="yes"/>
      <point x="148" y="692"/>
      <point x="148" y="665" type="qcurve" smooth="yes"/>
      <point x="148" y="641"/>
      <point x="147" y="592"/>
      <point x="147" y="568" type="qcurve" smooth="yes"/>
      <point x="147" y="457" type="line"/>
      <point x="210" y="455"/>
      <point x="347" y="451"/>
      <point x="466" y="418"/>
      <point x="540" y="329"/>
      <point x="540" y="242" type="qcurve" smooth="yes"/>
      <point x="540" y="220" type="line" smooth="yes"/>
      <point x="540" y="179"/>
      <point x="505" y="77"/>
      <point x="400" y="2"/>
      <point x="293" y="2" type="qcurve" smooth="yes"/>
      <point x="245" y="2"/>
      <point x="145" y="4"/>
      <point x="98" y="4" type="qcurve" smooth="yes"/>
      <point x="31" y="4" type="line"/>
      <point x="30" y="23" type="line"/>
      <point x="92" y="25" type="line"/>
      <point x="115" y="24"/>
      <point x="119" y="67"/>
      <point x="119" y="74" type="qcurve" smooth="yes"/>
      <point x="118" y="662" type="line"/>
      <point x="117" y="681"/>
      <point x="92" y="694"/>
      <point x="78" y="694" type="qcurve" smooth="yes"/>
      <point x="20" y="694" type="line"/>
      <point x="20" y="713" type="line"/>
      <point x="134" y="713" type="line" smooth="yes"/>
      <point x="174" y="713"/>
      <point x="248" y="714"/>
      <point x="249" y="714" type="qcurve"/>
      <point x="249" y="692" type="line"/>
    </contour>
  </outline>
</glyph>
<glyph name="uni042F" format="1">
  <advance width="649"/>
  <unicode hex="042F"/>
  <outline>
    <contour>
      <point x="324" y="355" type="qcurve" smooth="yes"/>
      <point x="367" y="357"/>
      <point x="456" y="358"/>
      <point x="507" y="359" type="qcurve"/>
      <point x="507" y="371"/>
      <point x="509" y="474"/>
      <point x="511" y="596"/>
      <point x="512" y="687"/>
      <point x="512" y="687" type="qcurve"/>
      <point x="349" y="687" type="line" smooth="yes"/>
      <point x="240" y="687"/>
      <point x="144" y="621"/>
      <point x="122" y="539"/>
      <point x="122" y="514" type="qcurve" smooth="yes"/>
      <point x="122" y="432"/>
      <point x="233" y="355"/>
    </contour>
    <contour>
      <point x="134" y="231" type="qcurve"/>
      <point x="151" y="287"/>
      <point x="223" y="330"/>
      <point x="261" y="340" type="qcurve"/>
      <point x="197" y="346"/>
      <point x="94" y="425"/>
      <point x="94" y="506" type="qcurve" smooth="yes"/>
      <point x="94" y="525"/>
      <point x="104" y="592"/>
      <point x="149" y="662"/>
      <point x="254" y="710"/>
      <point x="349" y="710" type="qcurve" smooth="yes"/>
      <point x="628" y="708" type="line"/>
      <point x="629" y="690" type="line"/>
      <point x="572" y="690" type="line" smooth="yes"/>
      <point x="542" y="690"/>
      <point x="543" y="660" type="qcurve"/>
      <point x="539" y="502"/>
      <point x="531" y="195"/>
      <point x="531" y="40" type="qcurve" smooth="yes"/>
      <point x="531" y="20"/>
      <point x="556" y="20" type="qcurve" smooth="yes"/>
      <point x="629" y="20" type="line"/>
      <point x="628" y="0" type="line"/>
      <point x="576" y="0"/>
      <point x="454" y="-2"/>
      <point x="402" y="-2" type="qcurve"/>
      <point x="402" y="-1"/>
      <point x="401" y="9"/>
      <point x="401" y="20" type="qcurve"/>
      <point x="479" y="20" type="line" smooth="yes"/>
      <point x="503" y="20"/>
      <point x="503" y="40" type="qcurve" smooth="yes"/>
      <point x="507" y="238" type="line" smooth="yes"/>
      <point x="507" y="262"/>
      <point x="508" y="310"/>
      <point x="508" y="334" type="qcurve"/>
      <point x="327" y="331" type="line"/>
      <point x="281" y="324"/>
      <point x="180" y="287"/>
      <point x="156" y="217" type="qcurve" smooth="yes"/>
      <point x="136" y="158"/>
      <point x="125" y="45"/>
      <point x="91" y="-30"/>
      <point x="35" y="-32" type="qcurve" smooth="yes"/>
      <point x="-1" y="-32"/>
      <point x="-30" y="-4"/>
      <point x="-30" y="-2" type="qcurve"/>
      <point x="-21" y="8" type="line"/>
      <point x="-20" y="7"/>
      <point x="3" y="-11"/>
      <point x="23" y="-11" type="qcurve" smooth="yes"/>
      <point x="72" y="-11"/>
      <point x="100" y="57"/>
      <point x="111" y="168"/>
    </contour>
  </outline>
</glyph>
<glyph name="uni0430" format="1">
  <advance width="680"/>
  <unicode hex="0430"/>
  <outline>
    <contour>
      <point x="508" y="217" type="qcurve"/>
      <point x="322" y="692" type="line"/>
      <point x="315" y="670"/>
      <point x="271" y="541"/>
      <point x="217" y="382"/>
      <point x="169" y="246"/>
      <point x="158" y="217" type="qcurve"/>
      <point x="171" y="217"/>
      <point x="274" y="217"/>
      <point x="401" y="217"/>
      <point x="500" y="217"/>
    </contour>
    <contour>
      <point x="313" y="732" type="qcurve"/>
      <point x="336" y="733" type="line"/>
      <point x="608" y="45" type="line"/>
      <point x="619" y="27"/>
      <point x="637" y="27" type="qcurve" smooth="yes"/>
      <point x="642" y="27"/>
      <point x="683" y="25"/>
      <point x="687" y="25" type="qcurve" smooth="yes"/>
      <point x="700" y="25" type="line"/>
      <point x="700" y="0" type="line"/>
      <point x="696" y="0"/>
      <point x="671" y="1"/>
      <point x="660" y="1" type="qcurve" smooth="yes"/>
      <point x="648" y="1"/>
      <point x="618" y="0"/>
      <point x="602" y="0" type="qcurve" smooth="yes"/>
      <point x="574" y="-1"/>
      <point x="497" y="-1"/>
      <point x="475" y="-1" type="qcurve"/>
      <point x="475" y="24" type="line"/>
      <point x="557" y="24" type="line"/>
      <point x="582" y="26"/>
      <point x="577" y="40" type="qcurve" smooth="yes"/>
      <point x="560" y="86"/>
      <point x="531" y="162"/>
      <point x="519" y="192" type="qcurve"/>
      <point x="509" y="192"/>
      <point x="473" y="191"/>
      <point x="447" y="191" type="qcurve" smooth="yes"/>
      <point x="389" y="190"/>
      <point x="226" y="193"/>
      <point x="182" y="193" type="qcurve" smooth="yes"/>
      <point x="155" y="193" type="line"/>
      <point x="101" y="42" type="line"/>
      <point x="96" y="33"/>
      <point x="113" y="22"/>
      <point x="124" y="23" type="qcurve"/>
      <point x="185" y="23" type="line"/>
      <point x="184" y="1" type="line"/>
      <point x="-20" y="0" type="line"/>
      <point x="-20" y="19" type="line"/>
      <point x="44" y="20" type="line" smooth="yes"/>
      <point x="66" y="20"/>
      <point x="77" y="41" type="qcurve"/>
      <point x="139" y="225" type="line"/>
      <point x="217" y="458" type="line" smooth="yes"/>
      <point x="247" y="547"/>
      <point x="300" y="698"/>
    </contour>
  </outline>
</glyph>
<glyph name="uni0431" format="1">
  <advance width="591"/>
  <unicode hex="0431"/>
  <outline>
    <contour>
      <point x="481" y="527" type="qcurve"/>
      <point x="480" y="543"/>
      <point x="481" y="633"/>
      <point x="481" y="654" type="qcurve" smooth="yes"/>
      <point x="481" y="675"/>
      <point x="465" y="682"/>
      <point x="451" y="683" type="qcurve"/>
      <point x="452" y="684"/>
      <point x="365" y="685"/>
      <point x="247" y="687"/>
      <point x="151" y="688"/>
      <point x="143" y="688" type="qcurve"/>
      <point x="139" y="434" type="line"/>
      <point x="182" y="433"/>
      <point x="269" y="432"/>
      <point x="311" y="432" type="qcurve" smooth="yes"/>
      <point x="414" y="432"/>
      <point x="549" y="334"/>
      <point x="549" y="228" type="qcurve" smooth="yes"/>
      <point x="549" y="209"/>
      <point x="540" y="136"/>
      <point x="496" y="57"/>
      <point x="394" y="2"/>
      <point x="300" y="2" type="qcurve" smooth="yes"/>
      <point x="249" y="2"/>
      <point x="144" y="4"/>
      <point x="94" y="4" type="qcurve" smooth="yes"/>
      <point x="21" y="4" type="line"/>
      <point x="21" y="24" type="line"/>
      <point x="76" y="24" type="line" smooth="yes"/>
      <point x="102" y="24"/>
      <point x="105" y="58" type="qcurve"/>
      <point x="106" y="210"/>
      <point x="112" y="486"/>
      <point x="114" y="620" type="qcurve" smooth="yes"/>
      <point x="114" y="623"/>
      <point x="113" y="659"/>
      <point x="113" y="663" type="qcurve" smooth="yes"/>
      <point x="113" y="690"/>
      <point x="81" y="690" type="qcurve" smooth="yes"/>
      <point x="19" y="691" type="line"/>
      <point x="19" y="713" type="line"/>
      <point x="19" y="713"/>
      <point x="117" y="712"/>
      <point x="261" y="712"/>
      <point x="406" y="711"/>
      <point x="503" y="710"/>
      <point x="503" y="710" type="qcurve"/>
      <point x="503" y="680"/>
      <point x="504" y="595"/>
      <point x="504" y="563" type="qcurve" smooth="yes"/>
      <point x="504" y="527" type="line"/>
      <point x="498" y="527"/>
      <point x="487" y="526"/>
    </contour>
    <contour>
      <point x="135" y="29" type="qcurve"/>
      <point x="175" y="28"/>
      <point x="254" y="28"/>
      <point x="294" y="28" type="qcurve" smooth="yes"/>
      <point x="404" y="28"/>
      <point x="499" y="102"/>
      <point x="521" y="193"/>
      <point x="521" y="219" type="qcurve" smooth="yes"/>
      <point x="521" y="308"/>
      <point x="414" y="410"/>
      <point x="312" y="410" type="qcurve" smooth="yes"/>
      <point x="269" y="410"/>
      <point x="184" y="411"/>
      <point x="140" y="412" type="qcurve"/>
      <point x="140" y="395"/>
      <point x="138" y="281"/>
      <point x="136" y="145"/>
      <point x="135" y="39"/>
    </contour>
  </outline>
</glyph>
<glyph name="uni0438" format="1">
  <advance width="712"/>
  <unicode hex="0438"/>
  <outline>
    <contour>
      <point x="258" y="22" type="qcurve"/>
      <point x="258" y="-2" type="line"/>
      <point x="242" y="-2"/>
      <point x="209" y="-1"/>
      <point x="194" y="-1" type="qcurve" smooth="yes"/>
      <point x="116" y="-1" type="line" smooth="yes"/>
      <point x="105" y="-1"/>
      <point x="82" y="0"/>
      <point x="71" y="0" type="qcurve" smooth="yes"/>
      <point x="20" y="0" type="line"/>
      <point x="20" y="23" type="line"/>
      <point x="32" y="23"/>
      <point x="55" y="22"/>
      <point x="67" y="22" type="qcurve" smooth="yes"/>
      <point x="106" y="22"/>
      <point x="120" y="34"/>
      <point x="120" y="77" type="qcurve" smooth="yes"/>
      <point x="120" y="86" type="line" smooth="yes"/>
      <point x="123" y="237"/>
      <point x="126" y="499"/>
      <point x="128" y="650" type="qcurve" smooth="yes"/>
      <point x="128" y="655"/>
      <point x="118" y="680"/>
      <point x="92" y="680" type="qcurve" smooth="yes"/>
      <point x="70" y="680"/>
      <point x="25" y="679"/>
      <point x="25" y="679" type="qcurve"/>
      <point x="25" y="702" type="line"/>
      <point x="256" y="700" type="line"/>
      <point x="256" y="694"/>
      <point x="255" y="682"/>
      <point x="255" y="677" type="qcurve"/>
      <point x="192" y="677" type="line" smooth="yes"/>
      <point x="158" y="677"/>
      <point x="158" y="653" type="qcurve"/>
      <point x="154" y="357" type="line" smooth="yes"/>
      <point x="153" y="281"/>
      <point x="150" y="130"/>
      <point x="149" y="54" type="qcurve"/>
      <point x="541" y="651" type="line" smooth="yes"/>
      <point x="554" y="671"/>
      <point x="541" y="678"/>
      <point x="522" y="678" type="qcurve" smooth="yes"/>
      <point x="456" y="677" type="line"/>
      <point x="456" y="700" type="line"/>
      <point x="632" y="700" type="line" smooth="yes"/>
      <point x="646" y="700"/>
      <point x="678" y="701"/>
      <point x="692" y="701" type="qcurve"/>
      <point x="692" y="677" type="line"/>
      <point x="647" y="677" type="line" smooth="yes"/>
      <point x="609" y="677"/>
      <point x="599" y="662"/>
      <point x="598" y="609" type="qcurve" smooth="yes"/>
      <point x="596" y="530"/>
      <point x="591" y="366"/>
      <point x="590" y="288" type="qcurve" smooth="yes"/>
      <point x="588" y="60" type="line"/>
      <point x="588" y="35"/>
      <point x="604" y="25"/>
      <point x="622" y="23" type="qcurve"/>
      <point x="625" y="23"/>
      <point x="665" y="22"/>
      <point x="681" y="22" type="qcurve"/>
      <point x="681" y="1" type="line"/>
      <point x="452" y="-1" type="line"/>
      <point x="452" y="1"/>
      <point x="453" y="5"/>
      <point x="453" y="9" type="qcurve" smooth="yes"/>
      <point x="453" y="22" type="line"/>
      <point x="454" y="22"/>
      <point x="507" y="23"/>
      <point x="529" y="23" type="qcurve" smooth="yes"/>
      <point x="558" y="23"/>
      <point x="558" y="60" type="qcurve" smooth="yes"/>
      <point x="558" y="82"/>
      <point x="560" y="215"/>
      <point x="564" y="386"/>
      <point x="568" y="548"/>
      <point x="570" y="655"/>
      <point x="570" y="655" type="qcurve"/>
      <point x="469" y="500"/>
      <point x="273" y="200"/>
      <point x="172" y="44" type="qcurve"/>
      <point x="166" y="26"/>
      <point x="189" y="23"/>
      <point x="192" y="23" type="qcurve" smooth="yes"/>
      <point x="207" y="23"/>
      <point x="244" y="22"/>
    </contour>
  </outline>
</glyph>
<glyph name="uni043E" format="1">
  <advance width="651"/>
  <unicode hex="043E"/>
  <outline>
    <contour>
      <point x="41" y="390" type="qcurve"/>
      <point x="49" y="569"/>
      <point x="202" y="736"/>
      <point x="311" y="736" type="qcurve" smooth="yes"/>
      <point x="433" y="736"/>
      <point x="562" y="620"/>
      <point x="611" y="435"/>
      <point x="611" y="329" type="qcurve" smooth="yes"/>
      <point x="611" y="178"/>
      <point x="487" y="-33"/>
      <point x="333" y="-36" type="qcurve" smooth="yes"/>
      <point x="215" y="-36"/>
      <point x="40" y="148"/>
      <point x="40" y="353" type="qcurve" smooth="yes"/>
      <point x="40" y="362"/>
      <point x="40" y="380"/>
    </contour>
    <contour>
      <point x="310" y="715" type="qcurve" smooth="yes"/>
      <point x="235" y="714"/>
      <point x="142" y="639"/>
      <point x="92" y="530"/>
      <point x="71" y="422"/>
      <point x="69" y="388" type="qcurve"/>
      <point x="69" y="384" type="line"/>
      <point x="68" y="376"/>
      <point x="68" y="359" type="qcurve" smooth="yes"/>
      <point x="68" y="313"/>
      <point x="87" y="188"/>
      <point x="142" y="69"/>
      <point x="248" y="-11"/>
      <point x="336" y="-12" type="qcurve" smooth="yes"/>
      <point x="432" y="-12"/>
      <point x="534" y="81"/>
      <point x="575" y="209"/>
      <point x="580" y="316"/>
      <point x="580" y="329" type="qcurve" smooth="yes"/>
      <point x="580" y="390" type="line" smooth="yes"/>
      <point x="579" y="431"/>
      <point x="559" y="541"/>
      <point x="504" y="646"/>
      <point x="398" y="715"/>
    </contour>
  </outline>
</glyph>
<glyph name="uni0440" format="1">
  <advance width="583"/>
  <unicode hex="0440"/>
  <outline>
    <contour>
      <point x="310" y="686" type="qcurve" smooth="yes"/>
      <point x="138" y="686" type="line"/>
      <point x="138" y="681"/>
      <point x="140" y="567"/>
      <point x="142" y="419"/>
      <point x="144" y="300"/>
      <point x="144" y="290" type="qcurve"/>
      <point x="189" y="290"/>
      <point x="280" y="291"/>
      <point x="326" y="292" type="qcurve" smooth="yes"/>
      <point x="422" y="294"/>
      <point x="533" y="401"/>
      <point x="533" y="492" type="qcurve" smooth="yes"/>
      <point x="533" y="521"/>
      <point x="510" y="613"/>
      <point x="416" y="686"/>
    </contour>
    <contour>
      <point x="143" y="268" type="line"/>
      <point x="145" y="50" type="line"/>
      <point x="144" y="40"/>
      <point x="159" y="20"/>
      <point x="187" y="20" type="qcurve" smooth="yes"/>
      <point x="207" y="20"/>
      <point x="248" y="21"/>
      <point x="249" y="21" type="qcurve"/>
      <point x="249" y="20"/>
      <point x="248" y="10"/>
      <point x="248" y="-1" type="qcurve"/>
      <point x="173" y="-1" type="line" smooth="yes"/>
      <point x="130" y="-1"/>
      <point x="29" y="0"/>
      <point x="21" y="0" type="qcurve"/>
      <point x="21" y="21" type="line"/>
      <point x="90" y="20" type="line" smooth="yes"/>
      <point x="121" y="20"/>
      <point x="119" y="50" type="qcurve" smooth="yes"/>
      <point x="117" y="153" type="line"/>
      <point x="106" y="660" type="line"/>
      <point x="108" y="687"/>
      <point x="75" y="687" type="qcurve" smooth="yes"/>
      <point x="20" y="688" type="line"/>
      <point x="20" y="693"/>
      <point x="21" y="703"/>
      <point x="21" y="708" type="qcurve"/>
      <point x="37" y="708"/>
      <point x="70" y="709"/>
      <point x="86" y="709" type="qcurve" smooth="yes"/>
      <point x="96" y="709" type="line" smooth="yes"/>
      <point x="149" y="709"/>
      <point x="255" y="709"/>
      <point x="307" y="710" type="qcurve" smooth="yes"/>
      <point x="310" y="710" type="line" smooth="yes"/>
      <point x="430" y="710"/>
      <point x="537" y="629"/>
      <point x="563" y="527"/>
      <point x="563" y="495" type="qcurve" smooth="yes"/>
      <point x="563" y="380"/>
      <point x="430" y="271"/>
      <point x="325" y="270" type="qcurve" smooth="yes"/>
    </contour>
  </outline>
</glyph>
<glyph name="uni0441" format="1">
  <advance width="576"/>
  <unicode hex="0441"/>
  <outline>
    <contour>
      <point x="334" y="0" type="qcurve" smooth="yes"/>
      <point x="380" y="0"/>
      <point x="484" y="33"/>
      <point x="511" y="76" type="qcurve"/>
      <point x="525" y="63" type="line"/>
      <point x="524" y="61"/>
      <point x="488" y="20"/>
      <point x="402" y="-20"/>
      <point x="326" y="-20" type="qcurve" smooth="yes"/>
      <point x="254" y="-20"/>
      <point x="121" y="57"/>
      <point x="34" y="222"/>
      <point x="30" y="353" type="qcurve" smooth="yes"/>
      <point x="30" y="455"/>
      <point x="108" y="649"/>
      <point x="190" y="695" type="qcurve" smooth="yes"/>
      <point x="232" y="718"/>
      <point x="319" y="735"/>
      <point x="356" y="735" type="qcurve" smooth="yes"/>
      <point x="427" y="735"/>
      <point x="530" y="699"/>
      <point x="536" y="696" type="qcurve"/>
      <point x="535" y="656"/>
      <point x="533" y="544"/>
      <point x="533" y="499" type="qcurve"/>
      <point x="513" y="500" type="line"/>
      <point x="513" y="518"/>
      <point x="512" y="557"/>
      <point x="512" y="576" type="qcurve" smooth="yes"/>
      <point x="512" y="602"/>
      <point x="512" y="657"/>
      <point x="510" y="682" type="qcurve"/>
      <point x="422" y="711"/>
      <point x="348" y="711" type="qcurve" smooth="yes"/>
      <point x="242" y="711"/>
      <point x="115" y="602"/>
      <point x="59" y="443"/>
      <point x="59" y="367" type="qcurve" smooth="yes"/>
      <point x="59" y="280"/>
      <point x="117" y="111"/>
      <point x="239" y="0"/>
    </contour>
  </outline>
</glyph>
<glyph name="uni0447" format="1">
  <advance width="707"/>
  <unicode hex="0447"/>
  <outline>
    <contour>
      <point x="599" y="26" type="qcurve"/>
      <point x="602" y="26"/>
      <point x="644" y="26"/>
      <point x="685" y="25"/>
      <point x="685" y="25" type="qcurve"/>
      <point x="686" y="21"/>
      <point x="686" y="5"/>
      <point x="687" y="1" type="qcurve"/>
      <point x="430" y="3" type="line"/>
      <point x="430" y="5"/>
      <point x="430" y="16"/>
      <point x="431" y="26" type="qcurve"/>
      <point x="499" y="26" type="line" smooth="yes"/>
      <point x="524" y="26"/>
      <point x="537" y="39"/>
      <point x="537" y="65" type="qcurve" smooth="yes"/>
      <point x="536" y="191" type="line" smooth="yes"/>
      <point x="536" y="217"/>
      <point x="535" y="268"/>
      <point x="535" y="293" type="qcurve"/>
      <point x="530" y="291"/>
      <point x="459" y="266"/>
      <point x="357" y="243"/>
      <point x="304" y="243" type="qcurve" smooth="yes"/>
      <point x="229" y="243"/>
      <point x="118" y="319"/>
      <point x="117" y="420" type="qcurve" smooth="yes"/>
      <point x="124" y="644" type="line" smooth="yes"/>
      <point x="125" y="657"/>
      <point x="113" y="675"/>
      <point x="85" y="678" type="qcurve" smooth="yes"/>
      <point x="67" y="680"/>
      <point x="35" y="679"/>
      <point x="21" y="679" type="qcurve"/>
      <point x="20" y="698" type="line"/>
      <point x="89" y="699"/>
      <point x="211" y="700"/>
      <point x="270" y="700" type="qcurve"/>
      <point x="269" y="682" type="line"/>
      <point x="268" y="682"/>
      <point x="204" y="681"/>
      <point x="179" y="679" type="qcurve" smooth="yes"/>
      <point x="150" y="677"/>
      <point x="147" y="640" type="qcurve"/>
      <point x="142" y="422" type="line"/>
      <point x="143" y="323"/>
      <point x="251" y="267"/>
      <point x="314" y="267" type="qcurve" smooth="yes"/>
      <point x="366" y="267"/>
      <point x="467" y="291"/>
      <point x="533" y="316"/>
      <point x="534" y="317" type="qcurve"/>
      <point x="535" y="327"/>
      <point x="535" y="384"/>
      <point x="535" y="422" type="qcurve" smooth="yes"/>
      <point x="535" y="496"/>
      <point x="530" y="637"/>
      <point x="530" y="654" type="qcurve" smooth="yes"/>
      <point x="530" y="680"/>
      <point x="500" y="680" type="qcurve" smooth="yes"/>
      <point x="425" y="680" type="line"/>
      <point x="425" y="702" type="line"/>
      <point x="678" y="704" type="line"/>
      <point x="678" y="682" type="line"/>
      <point x="677" y="682"/>
      <point x="608" y="680"/>
      <point x="590" y="680" type="qcurve" smooth="yes"/>
      <point x="583" y="680"/>
      <point x="560" y="673"/>
      <point x="560" y="653" type="qcurve" smooth="yes"/>
      <point x="560" y="607"/>
      <point x="561" y="399"/>
      <point x="563" y="298" type="qcurve" smooth="yes"/>
      <point x="566" y="63" type="line" smooth="yes"/>
      <point x="566" y="38"/>
      <point x="586" y="27"/>
    </contour>
  </outline>
</glyph>
<glyph name="uni044E" format="1">
  <advance width="900"/>
  <unicode hex="044E"/>
  <outline>
    <contour>
      <point x="587" y="-20" type="qcurve" smooth="yes"/>
      <point x="664" y="-20"/>
      <point x="759" y="45"/>
      <point x="810" y="142"/>
      <point x="829" y="241"/>
      <point x="831" y="313"/>
      <point x="831" y="318" type="qcurve" smooth="yes"/>
      <point x="831" y="358" type="line" smooth="yes"/>
      <point x="831" y="399"/>
      <point x="818" y="517"/>
      <point x="773" y="631"/>
      <point x="675" y="707"/>
      <point x="590" y="707" type="qcurve" smooth="yes"/>
      <point x="517" y="706"/>
      <point x="428" y="630"/>
      <point x="380" y="520"/>
      <point x="361" y="411"/>
      <point x="358" y="376" type="qcurve"/>
      <point x="358" y="364" type="line" smooth="yes"/>
      <point x="358" y="354"/>
      <point x="356" y="331"/>
      <point x="356" y="318" type="qcurve" smooth="yes"/>
      <point x="356" y="255"/>
      <point x="390" y="97"/>
      <point x="489" y="-20"/>
    </contour>
    <contour>
      <point x="594" y="-48" type="qcurve" smooth="yes"/>
      <point x="474" y="-48"/>
      <point x="330" y="126"/>
      <point x="330" y="322" type="qcurve"/>
      <point x="177" y="322" type="line"/>
      <point x="179" y="50" type="line" smooth="yes"/>
      <point x="179" y="41"/>
      <point x="189" y="17"/>
      <point x="219" y="16" type="qcurve" smooth="yes"/>
      <point x="291" y="14" type="line"/>
      <point x="289" y="-6" type="line"/>
      <point x="216" y="-6"/>
      <point x="113" y="-5"/>
      <point x="42" y="-3" type="qcurve"/>
      <point x="42" y="17" type="line"/>
      <point x="124" y="17" type="line" smooth="yes"/>
      <point x="154" y="17"/>
      <point x="154" y="50" type="qcurve" smooth="yes"/>
      <point x="152" y="211"/>
      <point x="149" y="492"/>
      <point x="147" y="653" type="qcurve" smooth="yes"/>
      <point x="147" y="666"/>
      <point x="137" y="680"/>
      <point x="114" y="680" type="qcurve" smooth="yes"/>
      <point x="22" y="680" type="line"/>
      <point x="20" y="700" type="line"/>
      <point x="290" y="704" type="line"/>
      <point x="290" y="681" type="line"/>
      <point x="268" y="681"/>
      <point x="227" y="680"/>
      <point x="204" y="680" type="qcurve" smooth="yes"/>
      <point x="177" y="679"/>
      <point x="177" y="650" type="qcurve" smooth="yes"/>
      <point x="177" y="347" type="line"/>
      <point x="330" y="347" type="line"/>
      <point x="332" y="377" type="line" smooth="yes"/>
      <point x="344" y="556"/>
      <point x="483" y="730"/>
      <point x="591" y="731" type="qcurve" smooth="yes"/>
      <point x="709" y="731"/>
      <point x="824" y="613"/>
      <point x="860" y="424"/>
      <point x="860" y="318" type="qcurve" smooth="yes"/>
      <point x="860" y="219"/>
      <point x="804" y="53"/>
      <point x="686" y="-48"/>
    </contour>
  </outline>
</glyph>
<glyph name="uni2014" format="1">
  <advance width="729"/>
  <unicode hex="2014"/>
  <outline>
    <contour>
      <point x="699" y="277" type="line"/>
      <point x="30" y="275" type="line"/>
      <point x="30" y="301" type="line"/>
      <point x="699" y="300" type="line"/>
    </contour>
  </outline>
</glyph>
<glyph name="uni2018" format="1">
  <advance width="157"/>
  <unicode hex="2018"/>
  <outline>
    <contour>
      <point x="72" y="553" type="qcurve" smooth="yes"/>
      <point x="57" y="553"/>
      <point x="50" y="576"/>
      <point x="50" y="587" type="qcurve" smooth="yes"/>
      <point x="50" y="638"/>
      <point x="98" y="722"/>
      <point x="95" y="722" type="qcurve"/>
      <point x="107" y="722" type="line"/>
      <point x="107" y="722"/>
      <point x="81" y="653"/>
      <point x="77" y="597" type="qcurve"/>
      <point x="97" y="597"/>
      <point x="97" y="576" type="qcurve" smooth="yes"/>
      <point x="97" y="553"/>
    </contour>
  </outline>
</glyph>
<glyph name="uni2019" format="1">
  <advance width="156"/>
  <unicode hex="2019"/>
  <outline>
    <contour>
      <point x="85" y="710" type="qcurve" smooth="yes"/>
      <point x="97" y="710"/>
      <point x="106" y="693"/>
      <point x="106" y="685" type="qcurve"/>
      <point x="105" y="632"/>
      <point x="62" y="541"/>
      <point x="62" y="541" type="qcurve"/>
      <point x="50" y="541" type="line"/>
      <point x="50" y="541"/>
      <point x="76" y="610"/>
      <point x="80" y="665" type="qcurve"/>
      <point x="63" y="665"/>
      <point x="61" y="681" type="qcurve"/>
      <point x="59" y="691"/>
      <point x="69" y="710"/>
    </contour>
  </outline>
</glyph>
<glyph name="uni201E" format="1">
  <advance width="272"/>
  <unicode hex="201E"/>
  <outline>
    <contour>
      <point x="85" y="39" type="qcurve" smooth="yes"/>
      <point x="97" y="39"/>
      <point x="106" y="22"/>
      <point x="106" y="14" type="qcurve"/>
      <point x="105" y="-39"/>
      <point x="62" y="-130"/>
      <point x="62" y="-130" type="qcurve"/>
      <point x="50" y="-130" type="line"/>
      <point x="50" y="-130"/>
      <point x="76" y="-62"/>
      <point x="80" y="-6" type="qcurve"/>
      <point x="63" y="-6"/>
      <point x="61" y="10" type="qcurve"/>
      <point x="59" y="20"/>
      <point x="69" y="39"/>
    </contour>
    <contour>
      <point x="201" y="38" type="qcurve" smooth="yes"/>
      <point x="222" y="38"/>
      <point x="222" y="14" type="qcurve"/>
      <point x="221" y="-39"/>
      <point x="178" y="-131"/>
      <point x="178" y="-131" type="qcurve"/>
      <point x="166" y="-131" type="line"/>
      <point x="166" y="-131"/>
      <point x="192" y="-62"/>
      <point x="196" y="-6" type="qcurve"/>
      <point x="179" y="-6"/>
      <point x="177" y="9" type="qcurve"/>
      <point x="171" y="38"/>
    </contour>
  </outline>
</glyph>
<glyph name="uni2020" format="1">
  <advance width="475"/>
  <unicode hex="2020"/>
  <outline>
    <contour>
      <point x="41" y="428" type="line"/>
      <point x="40" y="435"/>
      <point x="41" y="446"/>
      <point x="40" y="453" type="qcurve"/>
      <point x="69" y="453"/>
      <point x="129" y="452"/>
      <point x="157" y="452" type="qcurve" smooth="yes"/>
      <point x="221" y="452" type="line"/>
      <point x="221" y="515"/>
      <point x="222" y="641"/>
      <point x="222" y="705" type="qcurve"/>
      <point x="222" y="705"/>
      <point x="251" y="704"/>
      <point x="252" y="704" type="qcurve"/>
      <point x="252" y="673"/>
      <point x="251" y="606"/>
      <point x="251" y="575" type="qcurve" smooth="yes"/>
      <point x="251" y="452" type="line"/>
      <point x="296" y="453"/>
      <point x="389" y="452"/>
      <point x="434" y="453" type="qcurve"/>
      <point x="434" y="449"/>
      <point x="435" y="439"/>
      <point x="435" y="430" type="qcurve" smooth="yes"/>
      <point x="435" y="429"/>
      <point x="334" y="429"/>
      <point x="252" y="429" type="qcurve"/>
      <point x="252" y="335"/>
      <point x="249" y="113"/>
      <point x="246" y="-81"/>
      <point x="246" y="-133" type="qcurve" smooth="yes"/>
      <point x="246" y="-185" type="line"/>
      <point x="242" y="-185"/>
      <point x="232" y="-186"/>
      <point x="217" y="-186" type="qcurve"/>
      <point x="218" y="-33"/>
      <point x="221" y="274"/>
      <point x="222" y="427" type="qcurve"/>
      <point x="192" y="427"/>
      <point x="137" y="428"/>
      <point x="109" y="428" type="qcurve" smooth="yes"/>
    </contour>
  </outline>
</glyph>
<glyph name="uni2039" format="1">
  <advance width="385"/>
  <unicode hex="2039"/>
  <outline>
    <contour>
      <point x="326" y="-24" type="line"/>
      <point x="254" y="36"/>
      <point x="110" y="164"/>
      <point x="40" y="223" type="qcurve"/>
      <point x="296" y="505" type="line"/>
      <point x="312" y="488" type="line"/>
      <point x="78" y="226" type="line"/>
      <point x="144" y="169"/>
      <point x="279" y="52"/>
      <point x="345" y="-4" type="qcurve"/>
    </contour>
  </outline>
</glyph>
<glyph name="uni20AC" format="1">
  <advance width="653"/>
  <unicode hex="20AC"/>
  <outline>
    <contour>
      <point x="556" y="76" type="qcurve"/>
      <point x="560" y="258" type="line"/>
      <point x="581" y="262" type="line"/>
      <point x="581" y="217"/>
      <point x="583" y="104"/>
      <point x="583" y="63" type="qcurve"/>
      <point x="582" y="61"/>
      <point x="548" y="20"/>
      <point x="463" y="-20"/>
      <point x="384" y="-20" type="qcurve" smooth="yes"/>
      <point x="292" y="-20"/>
      <point x="132" y="106"/>
      <point x="103" y="245" type="qcurve"/>
      <point x="20" y="245" type="line"/>
      <point x="20" y="272" type="line"/>
      <point x="40" y="272"/>
      <point x="79" y="271"/>
      <point x="98" y="271" type="qcurve"/>
      <point x="96" y="291"/>
      <point x="91" y="331"/>
      <point x="91" y="353" type="qcurve" smooth="yes"/>
      <point x="91" y="366"/>
      <point x="92" y="391"/>
      <point x="93" y="404" type="qcurve"/>
      <point x="20" y="404" type="line"/>
      <point x="20" y="431" type="line"/>
      <point x="39" y="431"/>
      <point x="76" y="430"/>
      <point x="95" y="430" type="qcurve"/>
      <point x="106" y="513"/>
      <point x="183" y="658"/>
      <point x="248" y="695" type="qcurve"/>
      <point x="330" y="736"/>
      <point x="410" y="736" type="qcurve" smooth="yes"/>
      <point x="483" y="736"/>
      <point x="593" y="698"/>
      <point x="593" y="698" type="qcurve"/>
      <point x="593" y="658"/>
      <point x="591" y="544"/>
      <point x="591" y="499" type="qcurve"/>
      <point x="571" y="503" type="line"/>
      <point x="570" y="548"/>
      <point x="568" y="638"/>
      <point x="566" y="683" type="qcurve"/>
      <point x="522" y="698"/>
      <point x="445" y="711"/>
      <point x="410" y="711" type="qcurve" smooth="yes"/>
      <point x="317" y="711"/>
      <point x="197" y="628"/>
      <point x="133" y="499"/>
      <point x="123" y="430" type="qcurve"/>
      <point x="202" y="429"/>
      <point x="361" y="429"/>
      <point x="440" y="429" type="qcurve"/>
      <point x="440" y="404" type="line"/>
      <point x="121" y="404" type="line"/>
      <point x="118" y="385"/>
      <point x="118" y="366" type="qcurve" smooth="yes"/>
      <point x="118" y="315"/>
      <point x="128" y="271" type="qcurve"/>
      <point x="206" y="270"/>
      <point x="362" y="270"/>
      <point x="440" y="270" type="qcurve"/>
      <point x="440" y="245" type="line"/>
      <point x="133" y="245" type="line"/>
      <point x="156" y="148"/>
      <point x="282" y="0"/>
      <point x="391" y="0" type="qcurve" smooth="yes"/>
      <point x="458" y="0"/>
      <point x="529" y="38"/>
      <point x="556" y="76"/>
    </contour>
  </outline>
</glyph>
<glyph name="uni2116" format="1">
  <advance width="1053"/>
  <unicode hex="2116"/>
  <outline>
    <contour>
      <point x="849" y="351" type="qcurve" smooth="yes"/>
      <point x="770" y="351"/>
      <point x="687" y="452"/>
      <point x="687" y="542" type="qcurve" smooth="yes"/>
      <point x="687" y="625"/>
      <point x="784" y="714"/>
      <point x="849" y="714" type="qcurve" smooth="yes"/>
      <point x="862" y="714" type="line" smooth="yes"/>
      <point x="930" y="715"/>
      <point x="1013" y="614"/>
      <point x="1013" y="540" type="qcurve" smooth="yes"/>
      <point x="1013" y="472"/>
      <point x="941" y="351"/>
    </contour>
    <contour>
      <point x="570" y="50" type="line"/>
      <point x="568" y="200"/>
      <point x="557" y="470"/>
      <point x="557" y="644" type="qcurve" smooth="yes"/>
      <point x="557" y="676"/>
      <point x="517" y="676" type="qcurve" smooth="yes"/>
      <point x="460" y="678" type="line"/>
      <point x="460" y="699" type="line"/>
      <point x="686" y="701" type="line"/>
      <point x="686" y="679" type="line"/>
      <point x="685" y="679"/>
      <point x="634" y="677"/>
      <point x="612" y="675" type="qcurve" smooth="yes"/>
      <point x="582" y="672"/>
      <point x="582" y="643" type="qcurve" smooth="yes"/>
      <point x="582" y="475"/>
      <point x="590" y="169"/>
      <point x="593" y="-1" type="qcurve"/>
      <point x="571" y="-1" type="line"/>
      <point x="343" y="344" type="line"/>
      <point x="139" y="658" type="line"/>
      <point x="138" y="648"/>
      <point x="142" y="504"/>
      <point x="148" y="306"/>
      <point x="152" y="115"/>
      <point x="152" y="59" type="qcurve" smooth="yes"/>
      <point x="152" y="23"/>
      <point x="179" y="20" type="qcurve" smooth="yes"/>
      <point x="196" y="18"/>
      <point x="256" y="20"/>
      <point x="256" y="20" type="qcurve"/>
      <point x="256" y="-1" type="line"/>
      <point x="201" y="0"/>
      <point x="87" y="0"/>
      <point x="32" y="0" type="qcurve"/>
      <point x="32" y="5"/>
      <point x="33" y="15"/>
      <point x="33" y="20" type="qcurve"/>
      <point x="92" y="20" type="line" smooth="yes"/>
      <point x="125" y="21"/>
      <point x="125" y="60" type="qcurve" smooth="yes"/>
      <point x="122" y="354" type="line" smooth="yes"/>
      <point x="121" y="433"/>
      <point x="118" y="569"/>
      <point x="116" y="650" type="qcurve"/>
      <point x="111" y="682"/>
      <point x="77" y="680" type="qcurve" smooth="yes"/>
      <point x="20" y="678" type="line"/>
      <point x="20" y="700" type="line"/>
      <point x="52" y="700"/>
      <point x="113" y="699"/>
      <point x="144" y="699" type="qcurve"/>
      <point x="248" y="538"/>
      <point x="362" y="366" type="qcurve" smooth="yes"/>
    </contour>
    <contour>
      <point x="713" y="544" type="qcurve" smooth="yes"/>
      <point x="713" y="520"/>
      <point x="726" y="438"/>
      <point x="783" y="373"/>
      <point x="846" y="373" type="qcurve" smooth="yes"/>
      <point x="911" y="373"/>
      <point x="986" y="448"/>
      <point x="991" y="542" type="qcurve"/>
      <point x="991" y="625"/>
      <point x="898" y="697"/>
      <point x="855" y="695" type="qcurve" smooth="yes"/>
      <point x="778" y="691"/>
      <point x="713" y="600"/>
    </contour>
    <contour>
      <point x="710" y="248" type="line"/>
      <point x="710" y="269" type="line"/>
      <point x="906" y="272" type="line" smooth="yes"/>
      <point x="930" y="272"/>
      <point x="981" y="272"/>
      <point x="1005" y="273" type="qcurve"/>
      <point x="1005" y="252" type="line"/>
      <point x="981" y="251"/>
      <point x="930" y="251"/>
      <point x="906" y="251" type="qcurve" smooth="yes"/>
    </contour>
  </outline>
</glyph>
<glyph name="foundryicon" format="1">
  <advance width="1230"/>
  <outline>
    <contour>
      <point x="100" y="-110" type="line"/>
      <point x="100" y="810" type="line"/>
      <point x="1130" y="810" type="line"/>
      <point x="1130" y="-110" type="line"/>
    </contour>
    <contour>
      <point x="1110" y="-90" type="line"/>
      <point x="1110" y="790" type="line"/>
      <point x="120" y="790" type="line"/>
      <point x="120" y="-90" type="line"/>
    </contour>
    <contour>
      <point x="810" y="610" type="qcurve"/>
      <point x="965" y="610" type="line"/>
      <point x="965" y="565" type="line"/>
      <point x="850" y="565" type="line"/>
      <point x="841" y="602"/>
    </contour>
    <contour>
      <point x="300" y="565" type="line"/>
      <point x="235" y="565" type="line"/>
      <point x="235" y="610" type="line"/>
      <point x="400" y="610" type="line"/>
      <point x="425" y="565" type="line"/>
      <point x="355" y="565" type="line"/>
      <point x="355" y="400" type="line"/>
      <point x="300" y="400" type="line"/>
    </contour>
    <contour>
      <point x="495" y="480" type="line"/>
      <point x="420" y="610" type="line"/>
      <point x="480" y="610" type="line"/>
      <point x="520" y="535" type="line"/>
      <point x="525" y="535" type="line"/>
      <point x="565" y="610" type="line"/>
      <point x="630" y="610" type="line"/>
      <point x="550" y="480" type="line"/>
      <point x="550" y="400" type="line"/>
      <point x="495" y="400" type="line"/>
    </contour>
    <contour>
      <point x="635" y="610" type="line"/>
      <point x="745" y="610" type="line" smooth="yes"/>
      <point x="783" y="610"/>
      <point x="825" y="571"/>
      <point x="825" y="545" type="qcurve" smooth="yes"/>
      <point x="825" y="519"/>
      <point x="783" y="480"/>
      <point x="745" y="480" type="qcurve" smooth="yes"/>
      <point x="690" y="480" type="line"/>
      <point x="690" y="400" type="line"/>
      <point x="635" y="400" type="line"/>
    </contour>
    <contour>
      <point x="765" y="545" type="qcurve" smooth="yes"/>
      <point x="765" y="565"/>
      <point x="745" y="565" type="qcurve" smooth="yes"/>
      <point x="690" y="565" type="line"/>
      <point x="690" y="525" type="line"/>
      <point x="745" y="525" type="line" smooth="yes"/>
      <point x="765" y="525"/>
    </contour>
    <contour>
      <point x="790" y="400" type="line"/>
      <point x="790" y="465" type="line"/>
      <point x="809" y="469"/>
      <point x="846" y="503"/>
      <point x="850" y="525" type="qcurve"/>
      <point x="930" y="525" type="line"/>
      <point x="930" y="480" type="line"/>
      <point x="845" y="480" type="line"/>
      <point x="845" y="445" type="line"/>
      <point x="965" y="445" type="line"/>
      <point x="965" y="400" type="line"/>
    </contour>
    <contour>
      <point x="810" y="300" type="qcurve"/>
      <point x="965" y="300" type="line"/>
      <point x="965" y="255" type="line"/>
      <point x="850" y="255" type="line"/>
      <point x="841" y="292"/>
    </contour>
    <contour>
      <point x="300" y="255" type="line"/>
      <point x="235" y="255" type="line"/>
      <point x="235" y="300" type="line"/>
      <point x="400" y="300" type="line"/>
      <point x="425" y="255" type="line"/>
      <point x="355" y="255" type="line"/>
      <point x="355" y="90" type="line"/>
      <point x="300" y="90" type="line"/>
    </contour>
    <contour>
      <point x="495" y="170" type="line"/>
      <point x="420" y="300" type="line"/>
      <point x="480" y="300" type="line"/>
      <point x="520" y="225" type="line"/>
      <point x="525" y="225" type="line"/>
      <point x="565" y="300" type="line"/>
      <point x="630" y="300" type="line"/>
      <point x="550" y="170" type="line"/>
      <point x="550" y="90" type="line"/>
      <point x="495" y="90" type="line"/>
    </contour>
    <contour>
      <point x="635" y="300" type="line"/>
      <point x="745" y="300" type="line" smooth="yes"/>
      <point x="783" y="300"/>
      <point x="825" y="261"/>
      <point x="825" y="235" type="qcurve" smooth="yes"/>
      <point x="825" y="209"/>
      <point x="783" y="170"/>
      <point x="745" y="170" type="qcurve" smooth="yes"/>
      <point x="690" y="170" type="line"/>
      <point x="690" y="90" type="line"/>
      <point x="635" y="90" type="line"/>
    </contour>
    <contour>
      <point x="765" y="235" type="qcurve" smooth="yes"/>
      <point x="765" y="255"/>
      <point x="745" y="255" type="qcurve" smooth="yes"/>
      <point x="690" y="255" type="line"/>
      <point x="690" y="215" type="line"/>
      <point x="745" y="215" type="line" smooth="yes"/>
      <point x="765" y="215"/>
    </contour>
    <contour>
      <point x="790" y="90" type="line"/>
      <point x="790" y="155" type="line"/>
      <point x="809" y="159"/>
      <point x="846" y="193"/>
      <point x="850" y="215" type="qcurve"/>
      <point x="930" y="215" type="line"/>
      <point x="930" y="170" type="line"/>
      <point x="845" y="170" type="line"/>
      <point x="845" y="135" type="line"/>
      <point x="965" y="135" type="line"/>
      <point x="965" y="90" type="line"/>
    </contour>
  </outline>
</glyph>
